<svg width="160" height="49" viewBox="0 0 160 49" fill="none" xmlns="http://www.w3.org/2000/svg">
<path d="M98.8888 37.8398C89.676 44.6304 76.3226 48.2534 64.8256 48.2534C48.7049 48.2534 34.1921 42.291 23.2127 32.3743C22.3501 31.5945 23.123 30.5317 24.1581 31.139C36.0071 38.0331 50.6579 42.1806 65.7917 42.1806C75.9982 42.1806 87.2261 40.0689 97.55 35.6867C99.1096 35.0242 100.414 36.7081 98.8888 37.8398Z" fill="#FFBE5C"/>
<path d="M102.718 33.4578C101.545 31.9534 94.9341 32.747 91.9667 33.0989C91.0627 33.2094 90.9246 32.4226 91.739 31.8568C97.0044 28.1509 105.644 29.2206 106.652 30.4628C107.659 31.7118 106.39 40.3726 101.442 44.5062C100.683 45.1411 99.958 44.803 100.296 43.9611C101.407 41.1869 103.898 34.9691 102.718 33.4578Z" fill="#FFBE5C"/>
<path d="M92.1737 5.69524V2.09293C92.1737 1.54776 92.5878 1.18201 93.0846 1.18201H109.212C109.73 1.18201 110.144 1.55466 110.144 2.09293V5.17767C110.137 5.69524 109.702 6.37154 108.929 7.44119L100.572 19.373C103.678 19.2971 106.956 19.7594 109.771 21.3467C110.406 21.7055 110.579 22.23 110.627 22.7476V26.5914C110.627 27.1159 110.047 27.7301 109.44 27.4126C104.478 24.8109 97.8877 24.528 92.4014 27.4402C91.8424 27.7439 91.2559 27.1366 91.2559 26.6121V22.9615C91.2559 22.3749 91.2628 21.3743 91.8493 20.484L101.531 6.59927H93.1053C92.5878 6.59927 92.1737 6.23352 92.1737 5.69524Z" fill="#333333"/>
<path d="M33.3436 28.1716H28.437C27.9677 28.1371 27.5951 27.7851 27.5605 27.3365V2.15489C27.5605 1.65112 27.9815 1.25086 28.506 1.25086H33.0813C33.5575 1.27155 33.937 1.63731 33.9716 2.09278V5.38454H34.0613C35.2551 2.20319 37.4979 0.719482 40.5206 0.719482C43.5915 0.719482 45.51 2.20319 46.8902 5.38454C48.0771 2.20319 50.7754 0.719482 53.6669 0.719482C55.7234 0.719482 57.9731 1.5683 59.3464 3.47297C60.8992 5.59157 60.5817 8.66941 60.5817 11.3677L60.5748 27.2606C60.5748 27.7644 60.1539 28.1716 59.6294 28.1716H54.7297C54.2397 28.1371 53.8464 27.7437 53.8464 27.2606V13.9141C53.8464 12.8514 53.943 10.2014 53.7083 9.19388C53.3426 7.50315 52.2453 7.02697 50.8237 7.02697C49.6368 7.02697 48.3946 7.82059 47.8908 9.09037C47.387 10.3601 47.4354 12.4856 47.4354 13.9141V27.2606C47.4354 27.7644 47.0144 28.1716 46.4899 28.1716H41.5902C41.0934 28.1371 40.7069 27.7437 40.7069 27.2606L40.7 13.9141C40.7 11.1055 41.1624 6.97177 37.6774 6.97177C34.151 6.97177 34.289 11.0019 34.289 13.9141V27.2606C34.289 27.7644 33.868 28.1716 33.3436 28.1716Z" fill="#333333"/>
<path d="M124.029 0.719482C131.309 0.719482 135.25 6.97177 135.25 14.9217C135.25 22.6025 130.895 28.696 124.029 28.696C116.879 28.696 112.987 22.4438 112.987 14.6526C112.987 6.81304 116.928 0.719482 124.029 0.719482ZM124.07 5.86071C120.454 5.86071 120.226 10.788 120.226 13.8589C120.226 16.9368 120.178 23.5065 124.029 23.5065C127.831 23.5065 128.011 18.2066 128.011 14.9769C128.011 12.8514 127.921 10.3118 127.279 8.29675C126.727 6.54391 125.63 5.86071 124.07 5.86071Z" fill="#333333"/>
<path d="M144.69 28.1716H139.804C139.314 28.1371 138.921 27.7437 138.921 27.2606L138.914 2.07207C138.955 1.60971 139.363 1.25086 139.859 1.25086H144.407C144.835 1.27155 145.187 1.5614 145.284 1.95476V5.8055H145.373C146.747 2.36192 148.672 0.719482 152.06 0.719482C154.262 0.719482 156.408 1.5131 157.788 3.6869C159.072 5.70199 159.072 9.09037 159.072 11.5264V27.378C159.017 27.8196 158.609 28.1716 158.126 28.1716H153.206C152.757 28.1371 152.385 27.8058 152.336 27.378V13.7002C152.336 10.9467 152.654 6.91656 149.266 6.91656C148.072 6.91656 146.974 7.71707 146.429 8.93164C145.739 10.4706 145.649 12.0026 145.649 13.7002V27.2606C145.643 27.7644 145.215 28.1716 144.69 28.1716Z" fill="#333333"/>
<path d="M79.3179 16.1432V15.0805C75.7708 15.0805 72.0236 15.8396 72.0236 20.0216C72.0236 22.1402 73.1208 23.5756 75.0048 23.5756C76.385 23.5756 77.6202 22.7268 78.4001 21.3466C79.3662 19.6489 79.3179 18.0548 79.3179 16.1432ZM84.2659 28.1026C83.9415 28.3925 83.4723 28.4132 83.1065 28.2199C81.4779 26.8674 81.1881 26.2394 80.2909 24.9489C77.5995 27.6955 75.6949 28.5167 72.203 28.5167C68.0762 28.5167 64.8604 25.9702 64.8604 20.8704C64.8604 16.8885 67.0204 14.1765 70.0913 12.8515C72.7551 11.6783 76.4747 11.4713 79.3179 11.1469V10.512C79.3179 9.34578 79.4076 7.96558 78.7244 6.95805C78.124 6.05401 76.9785 5.68136 75.9709 5.68136C74.1008 5.68136 72.4307 6.6406 72.0236 8.62808C71.9407 9.06974 71.6164 9.5045 71.1747 9.52521L66.4131 9.01453C66.0128 8.92482 65.5712 8.60047 65.6816 7.98629C66.7788 2.21708 71.9891 0.478027 76.6541 0.478027C79.0419 0.478027 82.1611 1.11292 84.0451 2.92097C86.4328 5.14999 86.2051 8.12431 86.2051 11.3609V19.0071C86.2051 21.3052 87.1574 22.3127 88.0545 23.5549C88.372 23.9965 88.441 24.5279 88.0407 24.8592C87.0401 25.6942 85.2596 27.2469 84.2797 28.1164L84.2659 28.1026Z" fill="#333333"/>
<path d="M14.9937 16.1432V15.0805C11.4466 15.0805 7.69934 15.8396 7.69934 20.0216C7.69934 22.1402 8.7966 23.5756 10.6806 23.5756C12.0608 23.5756 13.296 22.7268 14.0758 21.3466C15.042 19.6489 14.9937 18.0548 14.9937 16.1432ZM19.9417 28.1026C19.6173 28.3925 19.1481 28.4132 18.7823 28.2199C17.1537 26.8674 16.8638 26.2394 15.9667 24.9489C13.2753 27.6955 11.3707 28.5167 7.87877 28.5167C3.75198 28.5167 0.536133 25.9702 0.536133 20.8704C0.536133 16.8885 2.69614 14.1765 5.76707 12.8515C8.43085 11.6783 12.1505 11.4713 14.9937 11.1469V10.512C14.9937 9.34578 15.0834 7.96558 14.4002 6.95805C13.7998 6.05401 12.6542 5.68136 11.6467 5.68136C9.77654 5.68136 8.1065 6.6406 7.69934 8.62808C7.61653 9.06974 7.29218 9.5045 6.85052 9.52521L2.08885 9.01453C1.68859 8.92482 1.24693 8.60047 1.35735 7.98629C2.4546 2.21708 7.66484 0.478027 12.3299 0.478027C14.7176 0.478027 17.8369 1.11292 19.7208 2.92097C22.1086 5.14999 21.8808 8.12431 21.8808 11.3609V19.0071C21.8808 21.3052 22.8332 22.3127 23.7303 23.5549C24.0478 23.9965 24.1168 24.5279 23.7165 24.8592C22.7159 25.6942 20.9354 27.2469 19.9555 28.1164L19.9417 28.1026Z" fill="#333333"/>
</svg>
