<svg width="159" height="27" viewBox="0 0 159 27" fill="none" xmlns="http://www.w3.org/2000/svg">
<g clip-path="url(#clip0_169_2815)">
<path d="M120.564 20.853C123.436 20.853 125.726 20.3913 127.96 19.3818V15.2067C127.96 15.1246 127.874 15.0737 127.799 15.1128C125.486 16.3219 123.369 16.8463 120.564 16.8463C117.169 16.8463 115.431 15.2302 115.431 12.1156C115.431 9.00095 117.174 7.38494 120.564 7.38494C123.373 7.38494 125.486 7.90926 127.799 9.11833C127.874 9.15746 127.96 9.10659 127.96 9.02442V4.84941C125.726 3.83988 123.436 3.37817 120.564 3.37817C114.415 3.37817 110.879 6.5515 110.879 12.1195C110.879 17.6875 114.415 20.8608 120.564 20.8608V20.853Z" fill="#FF5401"/>
<path d="M108.813 12.3971C108.813 6.13658 104.958 3.39758 99.4149 3.39758C93.3842 3.39758 89.7295 6.68438 89.7295 12.0528C89.7295 18.6616 93.8488 20.8528 99.8246 20.8528C103.452 20.8528 106.324 20.2738 108.294 19.499V15.4961C108.294 15.414 108.208 15.3631 108.137 15.3983C106.709 16.1066 103.459 16.9596 99.8832 16.9596C96.7437 16.9596 94.7652 15.9461 94.3244 13.4693H108.578C108.668 13.4693 108.743 13.4027 108.758 13.3166C108.802 13.0154 108.822 12.6984 108.822 12.4011L108.813 12.3971ZM99.4149 7.1461C102.224 7.1461 103.774 8.39821 104.349 10.2333H94.4032C94.8907 8.25344 96.4055 7.1461 99.4113 7.1461" fill="#FF5401"/>
<path d="M79.4255 3.36658C76.3963 3.36658 74.3309 4.54435 73.0445 6.28948C73.013 6.33252 72.9422 6.31296 72.9422 6.25818L72.8714 3.8283H68.5518V26.1864H72.9894V18.0085C72.9894 17.9537 73.0563 17.9303 73.0917 17.9771C74.3781 19.6949 76.4317 20.8531 79.4294 20.8531C84.5634 20.8531 87.7539 17.1907 87.7539 12.1118C87.7539 7.03293 84.5634 3.37049 79.4294 3.37049M78.0958 16.8424C75.1059 16.8424 72.9894 14.9682 72.9894 12.1118C72.9894 9.25543 75.1059 7.38117 78.0958 7.38117C81.3138 7.38117 83.0842 9.19673 83.0842 12.1118C83.0842 15.0269 81.3138 16.8424 78.0958 16.8424Z" fill="#FF5401"/>
<path d="M54.4207 20.4186H58.8583V7.84272H66.2819V3.83203H46.9932V7.84272H54.4207V20.4186Z" fill="#091F73"/>
<path d="M30.9183 13.0233V3.82809H26.4531V20.6847C26.4531 20.9233 26.7246 21.0603 26.9174 20.9195L40.3167 11.2077V20.4186H44.7818V3.56201C44.7818 3.32333 44.5104 3.18638 44.3177 3.32724L30.9183 13.0194V13.0233Z" fill="#091F73"/>
<path d="M2.22026 20.6182C0.981031 20.6182 0.0722656 20.5634 0.0722656 20.5634V16.5763H0.792196C1.63015 16.5763 2.26353 16.3767 2.68054 15.9776C3.10149 15.5785 3.41227 14.9289 3.61291 14.0251C3.81354 13.1251 3.97091 11.7713 4.085 9.96742C4.15975 8.69577 4.23843 6.65717 4.31317 3.84774C4.33285 2.97517 4.36038 1.87175 4.39972 0.545288H22.2997V20.4187H17.3742V4.36032H9.00649C8.98682 4.6264 8.93961 5.67895 8.86487 7.52191C8.82553 8.81316 8.79012 9.63095 8.75078 9.97136C8.57768 12.726 8.31017 14.8311 7.94824 16.2907C7.5863 17.754 6.96472 18.8379 6.08743 19.55C5.21014 20.2622 3.91976 20.6182 2.22419 20.6182H2.22026Z" fill="#091F73"/>
<path d="M137.964 3.81641C137.838 3.81641 137.803 3.89467 137.893 3.98075C138.381 4.46986 138.688 5.14288 138.688 5.88632C138.688 6.62976 138.386 7.30278 137.897 7.78797C137.803 7.88188 137.835 7.95622 138.012 7.95622H148.496C149.09 7.4632 149.471 6.71585 149.471 5.88241C149.471 5.04897 149.09 4.30552 148.496 3.80859H137.969L137.964 3.81641Z" fill="#091F73"/>
<path d="M137.964 10.046C137.838 10.046 137.803 10.1242 137.893 10.2102C138.381 10.6993 138.688 11.3724 138.688 12.1158C138.688 12.8592 138.386 13.5323 137.897 14.0175C137.803 14.1114 137.835 14.1857 138.012 14.1857H144.408C145.002 13.6927 145.384 12.9453 145.384 12.1119C145.384 11.2785 145.002 10.5351 144.408 10.0381H137.969L137.964 10.046Z" fill="#091F73"/>
<path d="M137.964 16.2747C137.831 16.2747 137.799 16.3491 137.898 16.443C138.385 16.9321 138.688 17.6012 138.688 18.3485C138.688 19.096 138.385 19.765 137.898 20.2503C137.803 20.3441 137.834 20.4185 138.011 20.4185H140.324C140.919 19.9254 141.3 19.1781 141.3 18.3447C141.3 17.5113 140.919 16.7678 140.324 16.2709H137.968L137.964 16.2747Z" fill="#091F73"/>
<path d="M156.934 3.81665H154.121C154.715 4.31358 155.096 5.05311 155.096 5.89046C155.096 6.72781 154.715 7.46734 154.121 7.96428H156.934C157.527 7.47126 157.909 6.72781 157.909 5.89046C157.909 5.05311 157.527 4.31358 156.934 3.81665Z" fill="#FF5500"/>
<path d="M154.118 3.81665H151.305C151.899 4.31358 152.281 5.05311 152.281 5.89046C152.281 6.72781 151.899 7.46734 151.305 7.96428H154.118C154.712 7.47126 155.093 6.72781 155.093 5.89046C155.093 5.05311 154.712 4.31358 154.118 3.81665Z" fill="#5668D8"/>
<path d="M156.934 10.0458H150.034C150.628 10.5428 151.009 11.2822 151.009 12.1196C151.009 12.9569 150.628 13.6965 150.034 14.1934H156.934C157.528 13.7004 157.91 12.9569 157.91 12.1196C157.91 11.2822 157.528 10.5428 156.934 10.0458Z" fill="#FF5500"/>
<path d="M150.034 10.0458H147.221C147.815 10.5428 148.197 11.2822 148.197 12.1196C148.197 12.9569 147.815 13.6965 147.221 14.1934H150.034C150.628 13.7004 151.009 12.9569 151.009 12.1196C151.009 11.2822 150.628 10.5428 150.034 10.0458Z" fill="#5668D8"/>
<path d="M151.305 3.81665H148.492C149.086 4.31358 149.468 5.05311 149.468 5.89046C149.468 6.72781 149.086 7.46734 148.492 7.96428H151.305C151.899 7.47126 152.281 6.72781 152.281 5.89046C152.281 5.05311 151.899 4.31358 151.305 3.81665Z" fill="#3F3EBE"/>
<path d="M147.218 10.0458H144.405C144.999 10.5428 145.381 11.2822 145.381 12.1196C145.381 12.9569 144.999 13.6965 144.405 14.1934H147.218C147.812 13.7004 148.194 12.9569 148.194 12.1196C148.194 11.2822 147.812 10.5428 147.218 10.0458Z" fill="#3F3EBE"/>
<path d="M156.934 16.2749H145.951C146.545 16.7718 146.926 17.5113 146.926 18.3487C146.926 19.1861 146.545 19.9255 145.951 20.4225H156.934C157.529 19.9295 157.91 19.1861 157.91 18.3487C157.91 17.5113 157.529 16.7718 156.934 16.2749Z" fill="#FF5500"/>
<path d="M145.947 16.2749H143.134C143.728 16.7718 144.11 17.5113 144.11 18.3487C144.11 19.1861 143.728 19.9255 143.134 20.4225H145.947C146.541 19.9295 146.922 19.1861 146.922 18.3487C146.922 17.5113 146.541 16.7718 145.947 16.2749Z" fill="#5668D8"/>
<path d="M143.134 16.2749H140.321C140.915 16.7718 141.297 17.5113 141.297 18.3487C141.297 19.1861 140.915 19.9255 140.321 20.4225H143.134C143.728 19.9295 144.11 19.1861 144.11 18.3487C144.11 17.5113 143.728 16.7718 143.134 16.2749Z" fill="#3F3EBE"/>
</g>
<defs>
<clipPath id="clip0_169_2815">
<rect width="158.536" height="25.6409" fill="white" transform="translate(0.0722656 0.545288)"/>
</clipPath>
</defs>
</svg>
