<svg width="159" height="35" viewBox="0 0 159 35" fill="none" xmlns="http://www.w3.org/2000/svg">
<g clip-path="url(#clip0_169_2804)">
<path fill-rule="evenodd" clip-rule="evenodd" d="M19.0579 0.109012C15.4937 -0.266421 11.9008 0.471255 8.77295 2.22065C5.64509 3.97004 3.13582 6.64527 1.59007 9.87862C0.0443123 13.112 -0.462056 16.7447 0.140566 20.2775C0.743187 23.8103 2.42522 27.0698 4.95545 29.6079C7.48569 32.1459 10.7399 33.838 14.2709 34.4516C17.8018 35.0651 21.4361 34.57 24.6742 33.0342C27.9123 31.4985 30.5953 28.9975 32.3543 25.8751C34.1134 22.7526 34.8622 19.162 34.4978 15.5968C34.0968 11.6337 32.3425 7.92992 29.5302 5.10898C26.718 2.28804 23.0196 0.522273 19.0579 0.109012ZM18.4957 26.5407C16.5789 26.7979 14.6296 26.4479 12.9218 25.54C11.2141 24.6321 9.83381 23.2119 8.97491 21.479C8.11601 19.7462 7.82169 17.7877 8.13333 15.8789C8.44497 13.9701 9.34689 12.207 10.7123 10.8372C12.0778 9.46751 13.8381 8.56007 15.7459 8.24246C17.6537 7.92486 19.6131 8.21304 21.3487 9.06651C23.0842 9.91999 24.5087 11.2958 25.422 13.0007C26.3352 14.7056 26.6912 16.6538 26.4401 18.5715C26.1765 20.5885 25.2553 22.4625 23.8192 23.9031C22.383 25.3438 20.512 26.2708 18.4957 26.5407ZM43.776 0.795282C43.1744 0.796722 42.5806 0.932276 42.0379 1.19208C41.4952 1.45188 41.0173 1.8294 40.6389 2.29717C40.2605 2.76493 39.9912 3.31117 39.8504 3.89614C39.7097 4.4811 39.7012 5.09009 39.8255 5.67877C40.2061 7.58591 41.9874 8.889 43.928 8.889H55.1894L37.6641 32.0813C37.5345 32.2525 37.4551 32.4565 37.4349 32.6702C37.4147 32.884 37.4545 33.0992 37.5497 33.2917C37.6449 33.4842 37.7919 33.6463 37.9741 33.76C38.1563 33.8736 38.3666 33.9342 38.5813 33.9351H66.0714C68.0107 33.9351 69.7933 32.6323 70.174 30.7248C70.2982 30.1362 70.2898 29.5273 70.1492 28.9424C70.0086 28.3575 69.7394 27.8113 69.3612 27.3435C68.9829 26.8757 68.5052 26.4981 67.9627 26.2381C67.4202 25.9782 66.8266 25.8424 66.225 25.8407H52.5039L70.0157 2.66639C70.1466 2.49351 70.2267 2.28758 70.2471 2.0717C70.2675 1.85583 70.2273 1.63855 70.1311 1.44424C70.0348 1.24993 69.8863 1.08628 69.7023 0.97165C69.5182 0.857022 69.3059 0.795948 69.089 0.795282H43.776ZM153.625 0.888641C152.715 1.10506 151.906 1.62559 151.331 2.36418C150.757 3.10278 150.452 4.01519 150.467 4.95057V18.4263L128.631 1.04981C128.46 0.913881 128.254 0.829055 128.037 0.805089C127.819 0.781122 127.6 0.818988 127.403 0.914332C127.206 1.00968 127.04 1.15862 126.925 1.34404C126.809 1.52945 126.748 1.7438 126.748 1.96243V29.787C126.733 30.7224 127.038 31.6348 127.612 32.3734C128.186 33.112 128.995 33.6325 129.906 33.8489C130.497 33.9789 131.109 33.9746 131.698 33.8363C132.287 33.698 132.838 33.4292 133.309 33.0497C133.781 32.6703 134.161 32.1898 134.422 31.6438C134.683 31.0978 134.818 30.5002 134.817 29.8951V16.3027L156.653 33.6795C156.824 33.8154 157.03 33.9002 157.248 33.9241C157.465 33.948 157.684 33.9102 157.881 33.8149C158.078 33.7196 158.243 33.5707 158.359 33.3854C158.475 33.2 158.536 32.9858 158.536 32.7673V4.84116C158.536 4.23617 158.401 3.63875 158.14 3.09295C157.879 2.54715 157.499 2.06688 157.028 1.68756C156.556 1.30824 156.006 1.03954 155.417 0.901267C154.828 0.762996 154.216 0.758681 153.625 0.888641ZM96.7701 8.11429C106.006 8.11429 112.907 12.9952 112.907 17.3611C112.907 21.727 106.006 26.6079 96.7701 26.6079C87.5341 26.6079 80.6331 21.727 80.6331 17.3611C80.6331 12.9952 87.5341 8.11429 96.7701 8.11429ZM96.7701 0.0208948C83.4014 0.0208948 72.5643 7.78442 72.5643 17.3611C72.5643 26.9377 83.4014 34.7013 96.7701 34.7013C110.139 34.7013 120.976 26.9377 120.976 17.3611C120.976 7.78442 110.138 0.0208948 96.7701 0.0208948Z" fill="#005BFD"/>
</g>
<defs>
<clipPath id="clip0_169_2804">
<rect width="158.536" height="34.7026" fill="white" transform="translate(0 0.0144043)"/>
</clipPath>
</defs>
</svg>
