<svg width="128" height="38" viewBox="0 0 128 38" fill="none" xmlns="http://www.w3.org/2000/svg">
<g clip-path="url(#clip0_169_2834)">
<path d="M31.0944 12.3944H28.9873V37.0518H31.0944V12.3944Z" fill="#131313"/>
<path d="M30.0181 7.77672C30.9589 7.77672 31.7217 7.01399 31.7217 6.07311C31.7217 5.13224 30.9589 4.36951 30.0181 4.36951C29.0772 4.36951 28.3145 5.13224 28.3145 6.07311C28.3145 7.01399 29.0772 7.77672 30.0181 7.77672Z" fill="#131313"/>
<path d="M59.4727 37.0519C59.4727 37.0519 58.038 34.8103 58.038 32.5239V2.39697L55.931 2.71079V14.5464C54.7205 13.2014 52.6582 11.6771 49.4752 11.6771C45.53 11.6771 39.5674 15.2188 39.5674 24.9473C39.5674 34.5413 44.6334 37.9485 49.2062 37.9485C51.8513 37.9485 54.4963 36.3794 56.0654 33.6447C56.4689 35.9311 57.9484 37.4554 57.9932 37.545L59.4727 37.0519ZM49.4752 36.0656C43.6471 36.0656 41.5848 30.1478 41.5848 24.9025C41.5848 21.0918 43.5126 13.4256 49.4752 13.4704C53.4204 13.4704 55.4826 16.6086 55.8861 17.3259V28.7132C55.5275 33.1963 52.4341 36.0656 49.4752 36.0656Z" fill="#131313"/>
<path d="M75.7018 37.9037C71.1289 37.9037 65.7939 34.4965 65.7939 24.9025C65.7939 15.174 71.7566 11.6323 75.7018 11.6323C78.571 11.6323 80.8574 12.5738 82.5162 14.3671C85.7441 17.9088 85.2509 23.6024 85.2061 23.8265L85.1164 24.768H67.8114C67.8114 24.8128 67.8114 24.8577 67.8114 24.9025C67.8114 30.1478 69.8736 36.0656 75.7018 36.0656C79.5125 36.0656 83.0542 33.6447 83.099 33.6447L84.0404 34.9448C83.8611 35.0793 79.8263 37.9037 75.7018 37.9037ZM67.9907 22.9299H83.1886C83.1886 20.6435 82.8748 13.4256 75.7466 13.4256C70.053 13.4256 67.9907 20.1055 67.9907 22.9299Z" fill="#131313"/>
<path d="M99.9552 11.5426C97.6239 11.5426 95.472 13.0669 94.2167 16.0258C93.9029 13.7394 92.7373 12.3944 92.6924 12.3047L91.2578 12.8427C91.3026 12.8427 92.1993 14.7705 92.1993 17.0569V37.007H94.3064V22.7505C94.3064 17.5949 96.6376 13.6497 99.731 13.6497C101.928 13.6497 103.093 14.905 103.093 14.905L104.035 12.7979C103.945 12.7979 103.049 11.5426 99.9552 11.5426Z" fill="#131313"/>
<path d="M116.947 37.9933C110.895 37.9933 106.591 32.9273 106.591 24.768C106.591 16.6086 110.895 11.5426 116.947 11.5426C122.999 11.5426 127.438 16.6982 127.438 24.7231C127.438 32.8377 123.044 37.9933 116.947 37.9933ZM116.947 13.5152C111.164 13.5152 108.698 19.4778 108.698 24.8576C108.698 30.2374 111.164 36.2449 116.947 36.2449C122.73 36.2449 125.33 30.2374 125.33 24.8128C125.33 19.433 122.73 13.5152 116.947 13.5152Z" fill="#131313"/>
<path d="M22.8449 34.9896C22.4414 34.9448 21.9931 34.8103 21.5896 34.5862C20.962 34.2723 20.3792 33.824 19.886 33.286C19.5722 32.9274 19.2584 32.5687 18.9446 32.1204L11.8612 21.3608C11.8163 21.316 11.8163 21.2711 11.7715 21.2263C15.4925 19.971 18.1376 16.6086 18.1376 12.6635C18.1376 7.64231 13.8337 3.56262 8.49878 3.56262H2.71549H0.608398V36.9622H2.71549V21.7643H8.27462C9.35058 21.8091 10.0679 22.6609 10.6507 23.4679L17.7789 34.2723C19.1239 36.2001 20.6033 37.1416 22.2173 37.1416C22.3518 37.1416 22.4863 37.1416 22.5759 37.1416L23.0242 34.9896C22.9794 34.9896 22.9346 34.9896 22.8449 34.9896ZM8.49878 19.6572H3.79145H2.71549V5.66971H2.76032H3.79145H8.49878C9.52991 5.66971 10.5162 5.84904 11.4577 6.25252C12.3543 6.61118 13.1613 7.10433 13.8786 7.7768C15.2684 9.07692 16.0305 10.8254 16.0305 12.6635C16.0305 14.5016 15.2684 16.25 13.8786 17.5501C13.2061 18.2226 12.3991 18.7157 11.4577 19.0744C10.5162 19.4779 9.52991 19.6572 8.49878 19.6572Z" fill="#131313"/>
<path d="M118.471 8.67337L117.306 8.04573L120.399 0.738159L122.327 1.58996L118.471 8.67337Z" fill="#131313"/>
</g>
<defs>
<clipPath id="clip0_169_2834">
<rect width="126.829" height="37.2551" fill="white" transform="translate(0.608398 0.738159)"/>
</clipPath>
</defs>
</svg>
