<svg width="186" height="49" viewBox="0 0 186 49" fill="none" xmlns="http://www.w3.org/2000/svg">
<path d="M76.8887 8.80472V17.2129L77.8988 17.1683L78.8942 17.1238L78.9387 8.76015L78.9684 0.411394H77.9286H76.8887V8.80472Z" fill="#131313"/>
<path d="M90.1105 3.51638V6.63602L89.3677 6.13094C88.2981 5.41788 87.7336 5.26932 86.2629 5.3436C85.2973 5.38817 84.7922 5.49215 84.2426 5.75955C82.0291 6.82914 80.8704 9.47341 81.3161 12.4742C81.524 13.9598 82.0291 15.0442 82.9056 15.9207C83.8712 16.8714 84.7328 17.2428 86.1886 17.3171C87.7039 17.3914 88.6398 17.1091 89.5757 16.2921L90.259 15.683V16.4406V17.1982H91.2246H92.1902V8.80492V0.411596H91.1504H90.1105V3.51638ZM88.105 7.37879C89.338 7.9433 90.0511 9.08717 90.1996 10.7658C90.4819 13.7221 88.9369 15.6978 86.4709 15.5344C84.5694 15.4156 83.4255 14.0192 83.3067 11.6423C83.1581 8.9089 84.5248 7.09654 86.6937 7.09654C87.1691 7.09654 87.7633 7.21538 88.105 7.37879Z" fill="#131313"/>
<path d="M95.1611 8.80464V17.198H96.1267H97.0923V16.4998V15.8015L97.5083 16.2026C97.7311 16.4106 98.2956 16.7672 98.771 16.99C99.5583 17.3465 99.7663 17.3762 100.999 17.3168C102.054 17.2722 102.515 17.1682 103.035 16.9009C104.401 16.2026 105.367 15.0736 105.812 13.6475C106.184 12.4442 106.139 9.99307 105.738 8.8492C104.906 6.53176 103.228 5.31361 100.895 5.31361C99.5881 5.31361 98.6522 5.61072 97.8648 6.29407C97.538 6.56147 97.226 6.79915 97.1815 6.79915C97.1369 6.79915 97.0923 5.35818 97.0923 3.60524V0.411316H96.1267H95.1611V8.80464ZM101.742 7.27453C102.44 7.4825 103.198 8.18071 103.658 9.07203C103.956 9.60683 104 9.9188 104 11.3301C104 12.6522 103.941 13.0681 103.718 13.4841C102.945 14.9102 102.232 15.4153 100.851 15.5342C98.4887 15.7273 96.9438 13.7961 97.1221 10.8993C97.3003 8.10643 99.2909 6.54661 101.742 7.27453Z" fill="#131313"/>
<path d="M72.3284 0.782963C71.4668 1.15435 71.2588 2.22394 71.9124 2.86272C72.4324 3.39752 73.4722 3.38266 73.9031 2.84787C74.7944 1.71885 73.6505 0.218456 72.3284 0.782963Z" fill="#131313"/>
<path d="M137.246 0.78274C135.909 1.34725 136.325 3.23389 137.796 3.23389C138.984 3.23389 139.579 1.95632 138.806 1.10956C138.375 0.634186 137.84 0.530198 137.246 0.78274Z" fill="#131313"/>
<path d="M0.680664 15.8611V30.8651H4.39452H8.10838V15.8611V0.857134H4.39452H0.680664V15.8611Z" fill="#9237FF"/>
<path d="M14.1992 15.8611V30.8651H17.9131H21.6269L21.5972 15.8908L21.5527 0.93141L17.8834 0.886845L14.1992 0.857134V15.8611Z" fill="#9237FF"/>
<path d="M48.7234 1.10978C48.7679 1.25833 49.4067 3.30838 50.1346 5.68525C50.8626 8.04727 51.9619 11.5977 52.5709 13.5586L53.6702 17.1239H54.6061H55.5569L55.8391 16.2326C55.9877 15.7424 56.775 12.9941 57.5921 10.1419C58.424 7.27478 59.1519 4.83849 59.2113 4.71965C59.345 4.48196 59.3896 4.6008 61.5436 12.0731L62.9994 17.1239L63.9205 17.1685C64.7821 17.2131 64.8712 17.1834 65.0049 16.8714C65.0792 16.6783 65.822 14.3608 66.639 11.7017C67.4709 9.04258 68.496 5.70011 68.9416 4.27398C69.3873 2.84786 69.7884 1.49602 69.8478 1.25833L69.9369 0.857235H68.8971H67.8572L67.5452 1.77827C67.263 2.65474 65.5694 8.29981 64.5147 11.8205C64.277 12.6673 64.0245 13.2912 63.9651 13.2318C63.9056 13.1724 63.1034 10.4984 62.1824 7.31935C61.2614 4.12543 60.4592 1.37718 60.3849 1.18406C60.266 0.886946 60.1621 0.857235 59.3004 0.857235H58.3497L58.0377 1.85255C57.6218 3.21925 56.0471 8.61177 55.3043 11.2263C54.9775 12.3851 54.6507 13.2912 54.5913 13.2318C54.5319 13.1575 53.7148 10.543 52.7789 7.39363C51.8282 4.24427 50.9963 1.48116 50.9071 1.25833C50.7586 0.872089 50.714 0.857235 49.7038 0.857235C48.7679 0.857235 48.6491 0.886946 48.7234 1.10978Z" fill="#131313"/>
<path d="M111.353 5.53642C109.927 5.99694 108.531 7.49734 108.041 9.10173C107.937 9.42855 107.862 10.4981 107.862 11.4786C107.862 13.1573 107.892 13.3207 108.323 14.2269C108.947 15.5638 109.571 16.2175 110.729 16.782C111.68 17.2425 111.799 17.2722 113.433 17.2722C115.008 17.2722 115.201 17.2425 115.899 16.8711C116.746 16.4255 117.786 15.341 118.023 14.6725L118.172 14.2269H117.162C116.256 14.2269 116.122 14.2714 115.914 14.5834C115.245 15.5936 113.166 15.9055 111.725 15.2073C110.566 14.6279 109.69 13.2018 109.897 12.1917C109.957 11.8797 109.586 11.9094 114.666 11.8797L118.335 11.85V11.0626C118.335 10.1268 117.86 8.18069 117.503 7.58647C117.028 6.82885 116.345 6.19006 115.587 5.78897C114.963 5.477 114.607 5.40273 113.433 5.35816C112.482 5.32845 111.799 5.38787 111.353 5.53642ZM114.518 7.30422C115.171 7.58647 115.751 8.24011 116.033 9.0126C116.478 10.2902 116.672 10.2159 113.062 10.2159C110.774 10.2159 109.868 10.1713 109.868 10.0525C109.868 9.16115 110.729 7.86873 111.621 7.39335C112.289 7.05168 113.804 6.99226 114.518 7.30422Z" fill="#131313"/>
<path d="M144.823 5.52166C142.862 6.14558 141.48 7.95795 141.228 10.2457C140.886 13.3505 141.956 15.7422 144.139 16.8266C144.867 17.1832 145.224 17.2723 146.442 17.3169C148.655 17.4209 150.081 16.7821 151.017 15.3114C151.656 14.3012 151.626 14.2269 150.483 14.2269C149.606 14.2269 149.472 14.2715 149.205 14.5983C148.492 15.5194 146.605 15.9056 145.372 15.3857C144.199 14.8954 143.367 13.7367 143.263 12.5037L143.218 11.9243L147.452 11.8798L151.686 11.8501L151.597 10.3942C151.374 7.09633 149.591 5.29882 146.59 5.32853C145.967 5.32853 145.164 5.41767 144.823 5.52166ZM148.031 7.39344C148.358 7.55685 148.759 7.85396 148.923 8.07679C149.19 8.41846 149.68 9.72574 149.68 10.0971C149.68 10.1566 148.239 10.216 146.472 10.216H143.248L143.337 9.66632C143.486 8.80471 144.169 7.8391 144.912 7.43801C145.773 6.99234 147.2 6.96263 148.031 7.39344Z" fill="#131313"/>
<path d="M156.172 5.52176C154.211 6.21996 153.186 8.01747 153.691 9.82983C154.048 11.1371 155.266 11.865 157.554 12.1473C159.975 12.4295 160.673 12.8306 160.673 13.9745C160.673 14.7915 160.094 15.3263 158.995 15.564C157.524 15.8611 155.86 15.3115 155.444 14.3756C155.266 13.9448 155.221 13.9299 154.241 13.9299C153.26 13.9299 153.231 13.9448 153.32 14.2568C153.944 16.4256 155.593 17.421 158.43 17.317C159.693 17.2724 159.99 17.213 160.748 16.8267C161.936 16.2177 162.486 15.4303 162.575 14.227C162.664 12.9643 162.515 12.3553 161.921 11.7016C161.268 10.9737 160.317 10.6172 158.445 10.3795C156.068 10.0675 155.593 9.80012 155.563 8.74539C155.548 7.7055 156.469 7.03701 157.925 7.05187C159.009 7.06672 159.886 7.45296 160.272 8.12146C160.525 8.56712 160.584 8.58197 161.505 8.58197H162.456L162.367 8.16602C162.099 7.06672 160.941 5.89314 159.767 5.55147C158.816 5.26921 156.945 5.25436 156.172 5.52176Z" fill="#131313"/>
<path d="M71.9124 5.64065C71.8679 5.74464 71.853 8.37405 71.8679 11.4788L71.9124 17.1239H72.878H73.8436V11.3303V5.53666L72.9078 5.49209C72.2541 5.46238 71.957 5.50695 71.9124 5.64065Z" fill="#131313"/>
<path d="M120.563 11.3302V17.1981H121.603H122.643V13.4397C122.658 9.82982 122.658 9.66642 123 9.02763C123.475 8.07688 124.426 7.51238 125.733 7.40839L126.728 7.31926L126.773 6.36851L126.818 5.41776L125.778 5.50689C124.634 5.59603 123.728 5.98227 122.985 6.69533L122.495 7.15585V6.30909V5.46233H121.529H120.563V11.3302Z" fill="#131313"/>
<path d="M128.734 11.3302V17.1981H129.685H130.651L130.695 13.4397C130.74 9.88925 130.755 9.66641 131.067 9.0722C131.393 8.46312 132.077 7.85405 132.671 7.61636C132.834 7.55694 133.399 7.46781 133.934 7.40839C134.469 7.36382 134.885 7.27469 134.87 7.20041C134.84 7.14099 134.825 6.72504 134.825 6.27938V5.46233H134.186C133.132 5.46233 132.032 5.86342 131.319 6.53192L130.666 7.14099V6.29423V5.46233H129.7H128.734V11.3302Z" fill="#131313"/>
<path d="M136.83 5.64065C136.786 5.74464 136.771 8.37405 136.786 11.4788L136.83 17.1239H137.796H138.762V11.3303V5.53666L137.826 5.49209C137.172 5.46238 136.875 5.50695 136.83 5.64065Z" fill="#131313"/>
<path d="M173.94 23.9574C174.044 24.9676 174.653 26.1412 175.396 26.7205C176.629 27.701 178.679 27.9981 180.402 27.4633C182.036 26.9582 183.091 25.7698 183.388 24.1208C183.477 23.6306 183.551 23.2147 183.551 23.1849C183.551 23.1552 182.883 23.1404 182.08 23.1404H180.61L180.506 23.6158C180.342 24.3734 179.882 24.8933 179.258 25.0716C178.114 25.3687 177.178 24.8488 176.837 23.7197L176.673 23.1404H175.262H173.851L173.94 23.9574Z" fill="#131313"/>
<path d="M93.9733 26.3787V28.8596L92.8295 29.0527C91.1805 29.3052 89.4721 30.1817 88.5065 31.2364C86.4862 33.4499 86.0108 36.7032 87.3181 39.5258C87.8677 40.7291 89.2939 42.1552 90.4674 42.69C91.3885 43.1059 92.8295 43.4922 93.4831 43.4922H93.9733V45.8988V48.3202L95.4886 48.2905C96.3353 48.2756 97.1969 48.2608 97.4346 48.2459H97.8357V45.869V43.4922H98.326C99.9303 43.4922 102.084 42.5117 103.288 41.2193C104.283 40.1348 104.758 39.2584 105.055 37.862C105.962 33.539 103.347 29.7509 98.9796 29.0527L97.8357 28.8596V26.3787V23.883H95.9045H93.9733V26.3787ZM93.9733 36.2279V40.2537L93.4237 40.1497C92.3095 39.9566 91.5519 39.3475 90.8685 38.1442C90.5269 37.5351 90.4674 35.4405 90.7794 34.6383C91.2845 33.2865 92.4135 32.41 93.8693 32.2169C93.9288 32.202 93.9733 34.0144 93.9733 36.2279ZM99.3361 32.6626C100.034 33.0042 100.703 33.7916 101.03 34.6235C101.356 35.4999 101.297 37.3717 100.896 38.1739C100.391 39.2138 99.4401 39.9566 98.3854 40.1497L97.8357 40.2537V36.2279V32.202L98.326 32.306C98.5785 32.3506 99.039 32.514 99.3361 32.6626Z" fill="#131313"/>
<path d="M50.001 33.6877V43.1952H57.0573H64.1136V44.9778V46.7605H66.1191H68.1246V43.1209V39.4962L66.9807 39.4516L65.822 39.4071L65.7774 31.7862L65.7477 24.1802H63.7423H61.7368L61.7071 31.7862L61.6625 39.4071L57.9189 39.4516L54.1605 39.4813L54.1308 31.8754L54.0862 24.2545L52.051 24.2099L50.001 24.1654V33.6877Z" fill="#131313"/>
<path d="M29.5898 24.5071C29.5453 24.6111 29.4858 25.2796 29.4413 25.9778C29.159 30.167 26.8416 34.6385 23.5734 37.3125C20.528 39.8082 17.3192 41.0115 13.2043 41.2195L11.2285 41.3086V44.7848V48.2461H12.9815C23.9596 48.2461 33.8385 40.0459 36.0965 29.0826C36.3788 27.6862 36.6759 24.6854 36.557 24.4774C36.4085 24.2397 29.6493 24.2694 29.5898 24.5071Z" fill="#9237FF"/>
<path d="M114.398 29.127C113.507 29.4241 113.121 29.6618 112.512 30.2411L111.947 30.7759V30.0034V29.2161L110.061 29.2607L108.159 29.3052V38.8127V48.3202H110.09H112.022L112.066 45.156L112.096 41.9918L112.571 42.378C113.463 43.1356 114.176 43.3882 115.527 43.4625C117.102 43.5367 118.083 43.2842 119.226 42.482C120.994 41.249 121.96 39.0801 121.96 36.3616C121.96 33.8064 121.41 32.1575 120.044 30.7314C118.929 29.5578 117.83 29.0675 116.196 28.9933C115.453 28.9487 114.77 29.0081 114.398 29.127ZM116.656 32.9002C118.32 34.2372 118.528 37.5649 117.058 39.1841C116.419 39.8823 115.735 40.1348 114.696 40.0457C113.656 39.9566 112.928 39.4069 112.467 38.3819C111.502 36.2279 112.111 33.5093 113.73 32.6774C114.696 32.1723 115.884 32.2763 116.656 32.9002Z" fill="#131313"/>
<path d="M129.477 29.1419C127.71 29.5132 125.823 30.9245 125.05 32.4398C123.907 34.6978 123.921 37.7729 125.125 40.12C127.264 44.3687 134.32 44.6658 136.979 40.6103C137.811 39.3475 138.138 38.1591 138.153 36.3616C138.168 33.9253 137.499 32.1872 136.014 30.7611C134.439 29.231 131.914 28.6071 129.477 29.1419ZM132.27 32.5735C133.369 33.0488 133.904 33.8065 134.157 35.3217C134.513 37.4015 133.696 39.3773 132.255 39.9121C131.676 40.1349 130.606 40.12 130.027 39.8675C128.096 39.0653 127.487 35.3811 128.957 33.4351C129.715 32.4695 131.111 32.0981 132.27 32.5735Z" fill="#131313"/>
<path d="M160.526 29.1417C159.278 29.4091 158.089 30.0775 157.198 31.0134C155.801 32.4693 155.267 33.9548 155.282 36.2871C155.296 38.1292 155.668 39.3919 156.559 40.6992C158.862 44.0714 164.314 44.4725 167.285 41.5014C169.988 38.7977 169.899 33.4646 167.121 30.7906C165.487 29.2308 162.977 28.6069 160.526 29.1417ZM163.318 32.5881C164.626 33.1229 165.294 34.4005 165.264 36.3317C165.25 37.9361 164.804 38.9611 163.823 39.6296C163.378 39.9416 163.125 40.001 162.219 40.001C161.253 40.001 161.09 39.9564 160.57 39.5405C158.535 37.9212 158.802 33.6429 161.016 32.6327C161.773 32.291 162.576 32.2762 163.318 32.5881Z" fill="#131313"/>
<path d="M70.6494 36.2132V43.1952H72.5509H74.4376L77.1115 39.1545L79.7855 35.1139L79.8301 39.1545L79.8598 43.2101L81.7613 43.1655L83.6479 43.121V36.2132V29.3054L81.791 29.2757L79.9341 29.2311L77.3344 33.1678C75.9082 35.3218 74.6901 37.1045 74.6307 37.1045C74.5564 37.1045 74.5118 35.3367 74.5118 33.1678V29.2311H72.5806H70.6494V36.2132Z" fill="#131313"/>
<path d="M141.169 29.3351C141.035 29.4539 141.035 39.3179 141.169 41.5165L141.258 43.1952H145.209C148.983 43.1952 149.205 43.1803 150.156 42.8387C151.389 42.4227 152.087 41.9028 152.578 41.056C153.053 40.239 153.187 39.2734 152.949 38.278C152.8 37.669 152.592 37.3273 152.043 36.7776C151.657 36.3914 151.226 36.0646 151.107 36.0646C150.661 36.0646 150.736 35.7972 151.3 35.4258C152.711 34.4899 152.934 31.9051 151.716 30.5978C151.27 30.1076 150.216 29.6025 149.265 29.3945C148.418 29.2162 141.332 29.1568 141.169 29.3351ZM148.27 32.425C148.73 32.8707 148.775 33.7917 148.359 34.2968C148.091 34.6236 147.943 34.6533 146.502 34.6979L144.927 34.7573V33.4055V32.0536H146.413C147.809 32.0536 147.943 32.0833 148.27 32.425ZM148.596 37.7878C149.354 38.3672 149.28 39.7933 148.448 40.1944C148.225 40.2984 147.348 40.4321 146.487 40.4766L144.927 40.5658V39.0654C144.927 37.3124 144.808 37.4164 146.888 37.4461C147.943 37.4758 148.255 37.5353 148.596 37.7878Z" fill="#131313"/>
<path d="M172.261 29.3351C172.261 29.4094 172.246 32.529 172.231 36.2875L172.187 43.121L174.058 43.1655L175.93 43.2101L178.515 39.2585C179.941 37.0896 181.144 35.3218 181.219 35.3218C181.278 35.3218 181.323 37.0896 181.323 39.2585V43.2101L183.224 43.1655L185.111 43.121V36.2132V29.3054H183.254H181.397L178.797 33.1975C177.371 35.3367 176.153 37.1045 176.094 37.1045C176.019 37.1045 175.975 35.3367 175.975 33.1678V29.2311H174.118C173.093 29.2311 172.261 29.2757 172.261 29.3351Z" fill="#131313"/>
</svg>
