<svg width="191" height="51" viewBox="0 0 191 51" fill="none" xmlns="http://www.w3.org/2000/svg">
<g clip-path="url(#clip0_169_2845)">
<mask id="mask0_169_2845" style="mask-type:luminance" maskUnits="userSpaceOnUse" x="0" y="0" width="191" height="51">
<path d="M190.681 0H0.4375V50.7316H190.681V0Z" fill="white"/>
</mask>
<g mask="url(#mask0_169_2845)">
<path d="M6.34283 36.0579L0.536133 14.6517H4.34515L8.80664 31.0928L13.5882 14.6503L17.1388 14.6517L21.9371 31.1801L26.4187 14.6557L30.2276 14.6503L24.4184 36.0541L20.0033 36.0496L15.365 20.0637L10.7222 36.0537L6.34283 36.0579Z" fill="#BE11A5"/>
<path d="M32.8545 14.6628H36.4803V36.0441H32.8545V14.6628Z" fill="#BE11A5"/>
<path d="M44.2325 32.6901H53.0595V36.0441H40.6816V14.6628H44.2325V32.6901Z" fill="#BE11A5"/>
<path d="M64.2116 14.6875C67.1872 14.6875 69.6629 15.7233 71.6133 17.7701C73.5888 19.817 74.5891 22.3572 74.5891 25.3658C74.5891 28.3498 73.5888 30.8899 71.6133 32.9614C69.6629 35.0083 67.1872 36.0441 64.2116 36.0441H55.6846V14.6628H64.2116V14.6875ZM64.2116 32.7148C66.262 32.7148 67.9374 32.0243 69.1877 30.6433C70.488 29.2623 71.1382 27.4867 71.1382 25.3904C71.1382 23.245 70.488 21.5187 69.1877 20.1376C67.9125 18.7566 66.2371 18.0661 64.2116 18.0661H59.2604V32.7148H64.2116Z" fill="#BE11A5"/>
<path d="M93.7185 29.9361C93.7185 31.6879 93.0939 33.1436 91.8185 34.3033C90.5431 35.463 89.0425 36.0551 87.1924 36.0551H77.915V14.6628H86.517C88.2927 14.6628 89.7924 15.2551 91.0179 16.3654C92.2687 17.5003 92.8688 18.9068 92.8688 20.5846C92.8688 22.4598 92.1181 23.8909 90.6683 24.9519C92.5684 25.9389 93.7185 27.7154 93.7185 29.9361ZM81.4907 17.9692V23.5948H86.5416C88.1175 23.5948 89.3176 22.3611 89.3176 20.782C89.3176 19.2028 88.1175 17.9692 86.5416 17.9692H81.4907ZM87.217 32.7489C88.8673 32.7489 90.1681 31.4411 90.1681 29.7633C90.1681 28.0855 88.8673 26.7778 87.217 26.7778H81.4907V32.7735H87.217V32.7489Z" fill="#BE11A5"/>
<path d="M100.645 32.6995H110.248V36.0551H97.0947V14.6628H110.098V18.0185H100.645V23.5701H109.323V26.9011H100.645V32.6995Z" fill="#BE11A5"/>
<path d="M125.801 36.0551L121.2 28.2582H116.999V36.0551H113.448V14.6628H122.125C124.076 14.6628 125.726 15.329 127.051 16.6861C128.401 17.9938 129.102 19.6223 129.102 21.5469C129.102 24.261 127.376 26.753 124.801 27.74L129.727 36.0551H125.801ZM116.999 17.9691V25.1246H122.1C124 25.1246 125.501 23.5455 125.501 21.5469C125.501 19.5729 123.976 17.9691 122.1 17.9691H116.999Z" fill="#BE11A5"/>
<path d="M144.781 36.055L140.205 28.254H136.004V36.055H132.453V14.6516H141.13C143.081 14.6516 144.731 15.3182 146.056 16.676C147.406 17.9844 148.107 19.6136 148.107 21.5392C148.107 24.2548 146.381 26.7482 143.806 27.7356L148.732 36.055H144.781ZM136.004 17.9596V25.1188H141.105C143.005 25.1188 144.506 23.5388 144.506 21.5392C144.506 19.5643 142.981 17.9596 141.105 17.9596H136.004Z" fill="#BE11A5"/>
<path d="M151.332 14.6541H154.883V36.0551H151.332V14.6541Z" fill="#BE11A5"/>
<path d="M162.635 32.6995H172.238V36.0551H159.084V14.6628H172.087V18.0185H162.635V23.5701H171.312V26.9011H162.635V32.6995Z" fill="#BE11A5"/>
<path d="M174.713 31.1859L177.788 29.4103C178.664 31.8271 180.439 33.0108 183.164 33.0108C185.865 33.0108 187.19 31.8764 187.19 30.1994C187.19 29.3116 186.816 28.6704 186.116 28.2265C185.415 27.758 184.115 27.2401 182.265 26.6975C180.189 26.081 179.164 25.6864 177.713 24.7493C176.313 23.7629 175.613 22.3571 175.613 20.4336C175.613 18.5347 176.288 17.0551 177.663 15.9453C179.014 14.8108 180.664 14.2683 182.59 14.2683C186.066 14.2683 188.741 16.0439 190.142 18.9786L187.141 20.6802C186.24 18.7073 184.715 17.6962 182.59 17.6962C180.514 17.6962 179.188 18.732 179.188 20.3596C179.188 21.938 180.239 22.6778 183.565 23.6888C184.39 23.9602 184.99 24.1575 185.365 24.3054C185.765 24.4287 186.29 24.6507 186.965 24.9219C187.666 25.1932 188.216 25.5138 188.541 25.7851C189.691 26.6729 190.916 28.1279 190.766 30.1748C190.766 32.0983 190.066 33.652 188.641 34.7864C187.24 35.9209 185.39 36.4634 183.09 36.4634C178.889 36.4387 175.838 34.4658 174.713 31.1859Z" fill="#BE11A5"/>
</g>
</g>
<defs>
<clipPath id="clip0_169_2845">
<rect width="190.243" height="50.7316" fill="white" transform="translate(0.4375)"/>
</clipPath>
</defs>
</svg>
