<svg width="24" height="24" viewBox="0 0 24 24" fill="none" xmlns="http://www.w3.org/2000/svg">
<g opacity="0.4">
<path fill-rule="evenodd" clip-rule="evenodd" d="M9.34835 8.34835C10.0516 7.64509 11.0054 7.25 12 7.25C12.9946 7.25 13.9484 7.64509 14.6517 8.34835C15.3549 9.05161 15.75 10.0054 15.75 11C15.75 11.9946 15.3549 12.9484 14.6517 13.6517C13.9484 14.3549 12.9946 14.75 12 14.75C11.0054 14.75 10.0516 14.3549 9.34835 13.6517C8.64509 12.9484 8.25 11.9946 8.25 11C8.25 10.0054 8.64509 9.05161 9.34835 8.34835ZM12 8.75C11.4033 8.75 10.831 8.98705 10.409 9.40901C9.98705 9.83097 9.75 10.4033 9.75 11C9.75 11.5967 9.98705 12.169 10.409 12.591C10.831 13.0129 11.4033 13.25 12 13.25C12.5967 13.25 13.169 13.0129 13.591 12.591C14.0129 12.169 14.25 11.5967 14.25 11C14.25 10.4033 14.0129 9.83097 13.591 9.40901C13.169 8.98705 12.5967 8.75 12 8.75Z" fill="#131313"/>
<path fill-rule="evenodd" clip-rule="evenodd" d="M13.9412 4.01632C12.7108 3.67462 11.4119 3.66398 10.176 3.98546C8.94018 4.30694 7.81115 4.94914 6.90319 5.84709C5.99523 6.74504 5.34055 7.86688 5.00539 9.0991C4.67023 10.3313 4.66647 11.6302 4.99451 12.8644C5.32253 14.0984 5.97064 15.2239 6.8733 16.1271C6.87324 16.127 6.87337 16.1271 6.8733 16.1271L11.1173 20.3701C11.331 20.584 11.6157 20.7128 11.9175 20.732C12.3309 20.7582 12.6448 21.1146 12.6185 21.528C12.5923 21.9413 12.2359 22.2552 11.8226 22.229C11.1564 22.1867 10.5286 21.9029 10.0568 21.4309L5.81277 17.1879C4.72323 16.0978 3.94075 14.7392 3.54485 13.2497C3.14894 11.7602 3.15347 10.1926 3.55798 8.70541C3.96248 7.21824 4.75261 5.8643 5.84843 4.78057C6.94424 3.69684 8.30686 2.92176 9.79842 2.53377C11.29 2.14577 12.8575 2.15862 14.3425 2.57102C15.8275 2.98341 17.1773 3.78072 18.2552 4.88227C19.3331 5.98382 20.1009 7.35053 20.481 8.84412C20.861 10.3377 20.8399 11.9052 20.4196 13.388C20.3067 13.7865 19.892 14.018 19.4935 13.9051C19.095 13.7921 18.8635 13.3775 18.9765 12.979C19.3247 11.7504 19.3422 10.4516 19.0273 9.21404C18.7124 7.97649 18.0762 6.84407 17.1831 5.93136C16.29 5.01864 15.1716 4.35802 13.9412 4.01632Z" fill="#131313"/>
<path fill-rule="evenodd" clip-rule="evenodd" d="M21.5303 16.4697C21.8232 16.7626 21.8232 17.2374 21.5303 17.5303L17.5303 21.5303C17.2374 21.8232 16.7626 21.8232 16.4697 21.5303L14.4697 19.5303C14.1768 19.2374 14.1768 18.7626 14.4697 18.4697C14.7626 18.1768 15.2374 18.1768 15.5303 18.4697L17 19.9393L20.4697 16.4697C20.7626 16.1768 21.2374 16.1768 21.5303 16.4697Z" fill="#131313"/>
</g>
</svg>
