<svg width="24" height="25" viewBox="0 0 24 25" fill="none" xmlns="http://www.w3.org/2000/svg">
<g opacity="0.5">
<path fill-rule="evenodd" clip-rule="evenodd" d="M3.25 20.5C3.25 20.0858 3.58579 19.75 4 19.75H20C20.4142 19.75 20.75 20.0858 20.75 20.5C20.75 20.9142 20.4142 21.25 20 21.25H4C3.58579 21.25 3.25 20.9142 3.25 20.5Z" fill="#131313"/>
<path fill-rule="evenodd" clip-rule="evenodd" d="M12 3.75C12.4142 3.75 12.75 4.08579 12.75 4.5V14.5C12.75 14.9142 12.4142 15.25 12 15.25C11.5858 15.25 11.25 14.9142 11.25 14.5V4.5C11.25 4.08579 11.5858 3.75 12 3.75Z" fill="#131313"/>
<path fill-rule="evenodd" clip-rule="evenodd" d="M16.5303 9.96967C16.8232 10.2626 16.8232 10.7374 16.5303 11.0303L12.5303 15.0303C12.2374 15.3232 11.7626 15.3232 11.4697 15.0303C11.1768 14.7374 11.1768 14.2626 11.4697 13.9697L15.4697 9.96967C15.7626 9.67678 16.2374 9.67678 16.5303 9.96967Z" fill="#131313"/>
<path fill-rule="evenodd" clip-rule="evenodd" d="M7.46967 9.96967C7.76256 9.67678 8.23744 9.67678 8.53033 9.96967L12.5303 13.9697C12.8232 14.2626 12.8232 14.7374 12.5303 15.0303C12.2374 15.3232 11.7626 15.3232 11.4697 15.0303L7.46967 11.0303C7.17678 10.7374 7.17678 10.2626 7.46967 9.96967Z" fill="#131313"/>
</g>
</svg>
