<svg width="639" height="639" viewBox="0 0 639 639" fill="none" xmlns="http://www.w3.org/2000/svg">
<path d="M319.5 41.0527C264.428 41.0527 210.593 57.3834 164.803 87.9795C119.013 118.576 83.3234 162.063 62.2484 212.943C41.1734 263.822 35.6592 319.809 46.4031 373.822C57.1471 427.836 83.6666 477.45 122.608 516.392C161.55 555.333 211.164 581.853 265.178 592.597C319.191 603.341 375.178 597.827 426.057 576.752C476.937 555.677 520.424 519.987 551.02 474.197C581.617 428.406 597.947 374.572 597.947 319.5C597.947 308.578 606.801 299.724 617.724 299.724C628.646 299.724 637.5 308.578 637.5 319.5C637.5 382.394 618.85 443.876 583.907 496.171C548.965 548.466 499.3 589.225 441.193 613.294C383.086 637.362 319.147 643.66 257.461 631.39C195.775 619.119 139.113 588.833 94.6402 544.36C50.1671 499.887 19.8805 443.225 7.61042 381.539C-4.65967 319.853 1.63778 255.914 25.7064 197.807C49.7751 139.7 90.534 90.0349 142.829 55.0926C195.124 20.1504 256.606 1.5 319.5 1.5C330.422 1.5 339.276 10.3542 339.276 21.2764C339.276 32.1985 330.422 41.0527 319.5 41.0527Z" fill="#B7D44B" fill-opacity="0.05" stroke="#B7D44B" stroke-width="3" stroke-linecap="round"/>
<path d="M509.653 288.688C503.558 251.079 486.449 216.122 460.488 188.238C434.526 160.353 400.879 140.793 363.802 132.031C326.724 123.269 287.88 125.699 252.183 139.013C216.486 152.327 185.539 175.927 163.255 206.83C140.97 237.732 128.35 274.549 126.99 312.623C125.63 350.698 135.591 388.321 155.614 420.735C175.636 453.149 204.821 478.897 239.477 494.724C274.133 510.552 312.704 515.747 350.312 509.653C361.094 507.905 371.25 515.229 372.997 526.011C374.744 536.792 367.421 546.949 356.639 548.696C311.308 556.041 264.818 549.78 223.046 530.703C181.274 511.626 146.097 480.591 121.963 441.521C97.8298 402.452 85.8235 357.104 87.4629 311.211C89.1022 265.319 104.314 220.943 131.173 183.695C158.033 146.448 195.334 118.002 238.361 101.954C281.388 85.9059 328.207 82.9774 372.898 93.5384C417.589 104.1 458.145 127.676 489.436 161.286C520.728 194.896 541.351 237.031 548.696 282.361C550.443 293.143 543.119 303.299 532.338 305.046C521.556 306.793 511.4 299.469 509.653 288.688Z" fill="#B7D44B" fill-opacity="0.05" stroke="#B7D44B" stroke-width="3" stroke-linecap="round"/>
</svg>
