<svg width="32" height="32" viewBox="0 0 32 32" fill="none" xmlns="http://www.w3.org/2000/svg">
<g opacity="0.5">
<path fill-rule="evenodd" clip-rule="evenodd" d="M8.00016 7.66663C7.55814 7.66663 7.13421 7.84222 6.82165 8.15478C6.50909 8.46734 6.3335 8.89127 6.3335 9.33329V25.3333C6.3335 25.7753 6.50909 26.1992 6.82165 26.5118C7.13421 26.8244 7.55814 27 8.00016 27H24.0002C24.4422 27 24.8661 26.8244 25.1787 26.5118C25.4912 26.1992 25.6668 25.7753 25.6668 25.3333V9.33329C25.6668 8.89127 25.4912 8.46734 25.1787 8.15478C24.8661 7.84222 24.4422 7.66663 24.0002 7.66663H8.00016ZM5.40744 6.74057C6.09507 6.05293 7.0277 5.66663 8.00016 5.66663H24.0002C24.9726 5.66663 25.9053 6.05293 26.5929 6.74057C27.2805 7.4282 27.6668 8.36083 27.6668 9.33329V25.3333C27.6668 26.3058 27.2805 27.2384 26.5929 27.926C25.9053 28.6137 24.9726 29 24.0002 29H8.00016C7.0277 29 6.09507 28.6137 5.40744 27.926C4.7198 27.2384 4.3335 26.3058 4.3335 25.3333V9.33329C4.3335 8.36083 4.7198 7.4282 5.40744 6.74057Z" fill="white"/>
<path fill-rule="evenodd" clip-rule="evenodd" d="M21.3335 3C21.8858 3 22.3335 3.44772 22.3335 4V9.33333C22.3335 9.88562 21.8858 10.3333 21.3335 10.3333C20.7812 10.3333 20.3335 9.88562 20.3335 9.33333V4C20.3335 3.44772 20.7812 3 21.3335 3Z" fill="white"/>
<path fill-rule="evenodd" clip-rule="evenodd" d="M10.6665 3C11.2188 3 11.6665 3.44772 11.6665 4V9.33333C11.6665 9.88562 11.2188 10.3333 10.6665 10.3333C10.1142 10.3333 9.6665 9.88562 9.6665 9.33333V4C9.6665 3.44772 10.1142 3 10.6665 3Z" fill="white"/>
<path fill-rule="evenodd" clip-rule="evenodd" d="M4.3335 14.6666C4.3335 14.1143 4.78121 13.6666 5.3335 13.6666H26.6668C27.2191 13.6666 27.6668 14.1143 27.6668 14.6666C27.6668 15.2189 27.2191 15.6666 26.6668 15.6666H5.3335C4.78121 15.6666 4.3335 15.2189 4.3335 14.6666Z" fill="white"/>
<path fill-rule="evenodd" clip-rule="evenodd" d="M8.3335 18.6666C8.3335 18.1143 8.78121 17.6666 9.3335 17.6666H9.35083C9.90311 17.6666 10.3508 18.1143 10.3508 18.6666C10.3508 19.2189 9.90311 19.6666 9.35083 19.6666H9.3335C8.78121 19.6666 8.3335 19.2189 8.3335 18.6666Z" fill="white"/>
<path fill-rule="evenodd" clip-rule="evenodd" d="M12.3467 18.6666C12.3467 18.1143 12.7944 17.6666 13.3467 17.6666H13.3533C13.9056 17.6666 14.3533 18.1143 14.3533 18.6666C14.3533 19.2189 13.9056 19.6666 13.3533 19.6666H13.3467C12.7944 19.6666 12.3467 19.2189 12.3467 18.6666Z" fill="white"/>
<path fill-rule="evenodd" clip-rule="evenodd" d="M16.3467 18.6666C16.3467 18.1143 16.7944 17.6666 17.3467 17.6666H17.3533C17.9056 17.6666 18.3533 18.1143 18.3533 18.6666C18.3533 19.2189 17.9056 19.6666 17.3533 19.6666H17.3467C16.7944 19.6666 16.3467 19.2189 16.3467 18.6666Z" fill="white"/>
<path fill-rule="evenodd" clip-rule="evenodd" d="M20.3535 18.6666C20.3535 18.1143 20.8012 17.6666 21.3535 17.6666H21.3602C21.9125 17.6666 22.3602 18.1143 22.3602 18.6666C22.3602 19.2189 21.9125 19.6666 21.3602 19.6666H21.3535C20.8012 19.6666 20.3535 19.2189 20.3535 18.6666Z" fill="white"/>
<path fill-rule="evenodd" clip-rule="evenodd" d="M16.3535 22.6666C16.3535 22.1143 16.8012 21.6666 17.3535 21.6666H17.3602C17.9125 21.6666 18.3602 22.1143 18.3602 22.6666C18.3602 23.2189 17.9125 23.6666 17.3602 23.6666H17.3535C16.8012 23.6666 16.3535 23.2189 16.3535 22.6666Z" fill="white"/>
<path fill-rule="evenodd" clip-rule="evenodd" d="M8.34668 22.6666C8.34668 22.1143 8.79439 21.6666 9.34668 21.6666H9.35335C9.90563 21.6666 10.3533 22.1143 10.3533 22.6666C10.3533 23.2189 9.90563 23.6666 9.35335 23.6666H9.34668C8.79439 23.6666 8.34668 23.2189 8.34668 22.6666Z" fill="white"/>
<path fill-rule="evenodd" clip-rule="evenodd" d="M12.3467 22.6666C12.3467 22.1143 12.7944 21.6666 13.3467 21.6666H13.3533C13.9056 21.6666 14.3533 22.1143 14.3533 22.6666C14.3533 23.2189 13.9056 23.6666 13.3533 23.6666H13.3467C12.7944 23.6666 12.3467 23.2189 12.3467 22.6666Z" fill="white"/>
</g>
</svg>
