<svg width="24" height="25" viewBox="0 0 24 25" fill="none" xmlns="http://www.w3.org/2000/svg">
<path fill-rule="evenodd" clip-rule="evenodd" d="M11.4704 3.96963C12.4067 3.03333 13.6765 2.50732 15.0007 2.50732C16.3248 2.50732 17.5947 3.03333 18.531 3.96963C19.4673 4.90594 19.9933 6.17583 19.9933 7.49996C19.9933 8.8241 19.4673 10.094 18.531 11.0303L12.031 17.5303C11.4925 18.0688 10.7622 18.3713 10.0007 18.3713C9.23916 18.3713 8.50883 18.0688 7.97035 17.5303C7.43187 16.9918 7.12936 16.2615 7.12936 15.5C7.12936 14.7384 7.43187 14.0081 7.97035 13.4696L14.4704 6.96964C14.7632 6.67674 15.2381 6.67674 15.531 6.96964C15.8239 7.26253 15.8239 7.7374 15.531 8.03029L9.03101 14.5303C8.77384 14.7875 8.62936 15.1363 8.62936 15.5C8.62936 15.8637 8.77384 16.2125 9.03101 16.4696C9.28818 16.7268 9.63698 16.8713 10.0007 16.8713C10.3644 16.8713 10.7132 16.7268 10.9704 16.4696L17.4704 9.96963C18.1253 9.31464 18.4933 8.42627 18.4933 7.49996C18.4933 6.57366 18.1253 5.68529 17.4704 5.03029C16.8154 4.3753 15.927 4.00732 15.0007 4.00732C14.0744 4.00732 13.186 4.3753 12.531 5.03029L6.03101 11.5303C4.97819 12.5831 4.38672 14.011 4.38672 15.5C4.38672 16.9889 4.97819 18.4168 6.03101 19.4696C7.08383 20.5225 8.51177 21.1139 10.0007 21.1139C11.4896 21.1139 12.9175 20.5225 13.9704 19.4696L20.4704 12.9696C20.7632 12.6767 21.2381 12.6767 21.531 12.9696C21.8239 13.2625 21.8239 13.7374 21.531 14.0303L15.031 20.5303C13.6969 21.8644 11.8874 22.6139 10.0007 22.6139C8.11394 22.6139 6.30448 21.8644 4.97035 20.5303C3.63622 19.1962 2.88672 17.3867 2.88672 15.5C2.88672 13.6132 3.63622 11.8038 4.97035 10.4696L11.4704 3.96963Z" fill="white"/>
</svg>
