<svg width="19" height="18" viewBox="0 0 19 18" fill="none" xmlns="http://www.w3.org/2000/svg">
<g opacity="0.5">
<path fill-rule="evenodd" clip-rule="evenodd" d="M14.4393 4.10225C14.6589 4.32192 14.6589 4.67808 14.4393 4.89775L5.43925 13.8977C5.21958 14.1174 4.86343 14.1174 4.64376 13.8977C4.42409 13.6781 4.42409 13.3219 4.64376 13.1023L13.6438 4.10225C13.8634 3.88258 14.2196 3.88258 14.4393 4.10225Z" fill="#131313"/>
<path fill-rule="evenodd" clip-rule="evenodd" d="M4.64376 4.10225C4.86343 3.88258 5.21958 3.88258 5.43925 4.10225L14.4393 13.1023C14.6589 13.3219 14.6589 13.6781 14.4393 13.8977C14.2196 14.1174 13.8634 14.1174 13.6438 13.8977L4.64376 4.89775C4.42409 4.67808 4.42409 4.32192 4.64376 4.10225Z" fill="#131313"/>
</g>
</svg>
