<svg width="29" height="28" viewBox="0 0 29 28" fill="none" xmlns="http://www.w3.org/2000/svg">
<g clip-path="url(#clip0_80_5462)">
<path d="M16.8445 16.7C14.6445 18.97 14.4845 21.8 14.2945 28C20.0745 28 24.0645 27.98 26.1245 25.98C28.1245 23.92 28.1445 19.74 28.1445 14.15C21.9445 14.35 19.1145 14.5 16.8445 16.7ZM0.144531 14.15C0.144531 19.74 0.164531 23.92 2.16453 25.98C4.22453 27.98 8.21453 28 13.9945 28C13.7945 21.8 13.6445 18.97 11.4445 16.7C9.17453 14.5 6.34453 14.34 0.144531 14.15ZM13.9945 0C8.22453 0 4.22453 0.02 2.16453 2.02C0.164531 4.08 0.144531 8.26 0.144531 13.85C6.34453 13.65 9.17453 13.5 11.4445 11.3C13.6445 9.03 13.8045 6.2 13.9945 0ZM16.8445 11.3C14.6445 9.03 14.4845 6.2 14.2945 0C20.0745 0 24.0645 0.02 26.1245 2.02C28.1245 4.08 28.1445 8.26 28.1445 13.85C21.9445 13.65 19.1145 13.5 16.8445 11.3Z" fill="#2C3036"/>
<path d="M28.1445 14.15V13.85C21.9445 13.65 19.1145 13.5 16.8445 11.3C14.6445 9.03 14.4845 6.2 14.2945 0H13.9945C13.7945 6.2 13.6445 9.03 11.4445 11.3C9.17453 13.5 6.34453 13.66 0.144531 13.85V14.15C6.34453 14.35 9.17453 14.5 11.4445 16.7C13.6445 18.97 13.8045 21.8 13.9945 28H14.2945C14.4945 21.8 14.6445 18.97 16.8445 16.7C19.1145 14.5 21.9445 14.34 28.1445 14.15Z" fill="white"/>
</g>
<defs>
<clipPath id="clip0_80_5462">
<rect width="28" height="28" fill="white" transform="translate(0.144531)"/>
</clipPath>
</defs>
</svg>
