<svg width="28" height="29" viewBox="0 0 28 29" fill="none" xmlns="http://www.w3.org/2000/svg">
<path fill-rule="evenodd" clip-rule="evenodd" d="M25.1187 8.04779C25.4604 8.38949 25.4604 8.94351 25.1187 9.28522L15.7854 18.6186C15.4437 18.9603 14.8897 18.9603 14.5479 18.6186L10.5 14.5706L4.11872 20.9519C3.77701 21.2936 3.22299 21.2936 2.88128 20.9519C2.53957 20.6102 2.53957 20.0562 2.88128 19.7145L9.88128 12.7145C10.223 12.3727 10.777 12.3727 11.1187 12.7145L15.1667 16.7624L23.8813 8.04779C24.223 7.70608 24.777 7.70608 25.1187 8.04779Z" fill="#B7D44B"/>
<path fill-rule="evenodd" clip-rule="evenodd" d="M15.4585 8.6665C15.4585 8.18325 15.8502 7.7915 16.3335 7.7915H24.5002C24.9834 7.7915 25.3752 8.18325 25.3752 8.6665V16.8332C25.3752 17.3164 24.9834 17.7082 24.5002 17.7082C24.0169 17.7082 23.6252 17.3164 23.6252 16.8332V9.5415H16.3335C15.8502 9.5415 15.4585 9.14975 15.4585 8.6665Z" fill="#B7D44B"/>
</svg>
