<svg width="24" height="25" viewBox="0 0 24 25" fill="none" xmlns="http://www.w3.org/2000/svg">
<g opacity="0.4">
<path fill-rule="evenodd" clip-rule="evenodd" d="M5 6.25C4.66848 6.25 4.35054 6.3817 4.11612 6.61612C3.8817 6.85054 3.75 7.16848 3.75 7.5V17.5C3.75 17.8315 3.8817 18.1495 4.11612 18.3839C4.35054 18.6183 4.66848 18.75 5 18.75H19C19.3315 18.75 19.6495 18.6183 19.8839 18.3839C20.1183 18.1495 20.25 17.8315 20.25 17.5V7.5C20.25 7.16848 20.1183 6.85054 19.8839 6.61612C19.6495 6.3817 19.3315 6.25 19 6.25H5ZM3.05546 5.55546C3.57118 5.03973 4.27065 4.75 5 4.75H19C19.7293 4.75 20.4288 5.03973 20.9445 5.55546C21.4603 6.07118 21.75 6.77065 21.75 7.5V17.5C21.75 18.2293 21.4603 18.9288 20.9445 19.4445C20.4288 19.9603 19.7293 20.25 19 20.25H5C4.27065 20.25 3.57118 19.9603 3.05546 19.4445C2.53973 18.9288 2.25 18.2293 2.25 17.5V7.5C2.25 6.77065 2.53973 6.07118 3.05546 5.55546Z" fill="#131313"/>
<path fill-rule="evenodd" clip-rule="evenodd" d="M2.37597 7.08405C2.60573 6.73941 3.07138 6.64628 3.41603 6.87604L12 12.5987L20.584 6.87604C20.9286 6.64628 21.3943 6.73941 21.624 7.08405C21.8538 7.4287 21.7607 7.89435 21.416 8.12412L12.416 14.1241C12.1641 14.2921 11.8359 14.2921 11.584 14.1241L2.58398 8.12412C2.23933 7.89435 2.1462 7.4287 2.37597 7.08405Z" fill="#131313"/>
</g>
</svg>
