<svg width="29" height="28" viewBox="0 0 29 28" fill="none" xmlns="http://www.w3.org/2000/svg">
<g clip-path="url(#clip0_80_5453)">
<path d="M28.1436 23.9026C28.1436 26.1656 26.3091 28 24.0462 28H4.0974C1.83445 28 0 26.1656 0 23.9026V4.0974C0 1.83445 1.83445 0 4.0974 0H24.0462C26.3092 0 28.1436 1.83445 28.1436 4.0974V23.9026Z" fill="#FAAB62"/>
<path d="M27.999 23.8006C27.999 26.0403 26.1834 27.8559 23.9437 27.8559H4.1998C1.96011 27.8559 0.144531 26.0403 0.144531 23.8006V4.19882C0.144531 1.95914 1.96019 0.143555 4.1998 0.143555H23.9437C26.1834 0.143555 27.999 1.95921 27.999 4.19882V23.8006Z" fill="#F7931E"/>
<path d="M14.0562 4.18457C11.2669 4.18457 9.00586 6.44572 9.00586 9.2349C9.00586 12.0242 11.2669 14.2854 14.0562 14.2854C16.8454 14.2854 19.1065 12.0242 19.1065 9.2349C19.1065 6.44572 16.8454 4.18457 14.0562 4.18457ZM14.0562 11.3227C12.9032 11.3227 11.9685 10.388 11.9685 9.23497C11.9685 8.08199 12.9032 7.14728 14.0562 7.14728C15.2092 7.14728 16.1439 8.08199 16.1439 9.23497C16.1439 10.388 15.2092 11.3227 14.0562 11.3227Z" fill="white"/>
<path d="M15.839 18.3038C17.8608 17.8919 19.0724 16.9345 19.1365 16.8831C19.7282 16.4086 19.8232 15.5444 19.3487 14.9527C18.8743 14.361 18.0102 14.266 17.4184 14.7404C17.4059 14.7505 16.1136 15.7418 13.9874 15.7433C11.8613 15.7418 10.5417 14.7505 10.5292 14.7404C9.93742 14.266 9.07324 14.361 8.59884 14.9527C8.12437 15.5444 8.21941 16.4086 8.81104 16.8831C8.87601 16.9352 10.1376 17.9176 12.2161 18.3198L9.31934 21.3472C8.7929 21.8932 8.80872 22.7625 9.35468 23.2889C9.62115 23.5458 9.96459 23.6735 10.3077 23.6735C10.6675 23.6735 11.0269 23.533 11.2964 23.2535L13.9875 20.3868L16.9504 23.2721C17.4873 23.808 18.3566 23.8072 18.8924 23.2705C19.4282 22.7338 19.4276 21.8644 18.8909 21.3286L15.839 18.3038Z" fill="white"/>
</g>
<defs>
<clipPath id="clip0_80_5453">
<rect width="28.1436" height="28" fill="white"/>
</clipPath>
</defs>
</svg>
