<svg width="25" height="24" viewBox="0 0 25 24" fill="none" xmlns="http://www.w3.org/2000/svg">
<g opacity="0.4">
<path fill-rule="evenodd" clip-rule="evenodd" d="M6.4165 4.5C6.08498 4.5 5.76704 4.6317 5.53262 4.86612C5.30301 5.09573 5.17195 5.40547 5.16667 5.72962C5.39818 9.43818 6.9758 12.935 9.60366 15.5628C12.2315 18.1907 15.7283 19.7683 19.4369 19.9998C19.761 19.9946 20.0708 19.8635 20.3004 19.6339C20.5348 19.3995 20.6665 19.0815 20.6665 18.75V15.2578L16.731 13.6836L15.5596 15.6359C15.3588 15.9706 14.9348 16.0953 14.5848 15.9226C12.2652 14.7787 10.3878 12.9013 9.24386 10.5817C9.07121 10.2317 9.19593 9.8077 9.53063 9.60688L11.4829 8.4355L9.90873 4.5H6.4165ZM4.47196 3.80546C4.98769 3.28973 5.68716 3 6.4165 3H10.4165C10.7232 3 10.999 3.18671 11.1129 3.47146L13.1129 8.47146C13.2496 8.81324 13.118 9.20373 12.8024 9.39312L10.9146 10.5258C11.8106 12.0712 13.0953 13.3559 14.6407 14.2519L15.7734 12.3641C15.9628 12.0485 16.3533 11.9169 16.695 12.0536L21.695 14.0536C21.9798 14.1675 22.1665 14.4433 22.1665 14.75V18.75C22.1665 19.4793 21.8768 20.1788 21.361 20.6945C20.8453 21.2103 20.1458 21.5 19.4165 21.5C19.4013 21.5 19.3862 21.4995 19.371 21.4986C15.2874 21.2505 11.4359 19.5164 8.543 16.6235C5.65015 13.7306 3.91605 9.87908 3.66789 5.79549C3.66696 5.78035 3.6665 5.76518 3.6665 5.75C3.6665 5.02065 3.95623 4.32118 4.47196 3.80546Z" fill="#131313"/>
</g>
</svg>
