<svg width="44" height="44" viewBox="0 0 44 44" fill="none" xmlns="http://www.w3.org/2000/svg">
<path fill-rule="evenodd" clip-rule="evenodd" d="M22.006 5.04151C15.7419 5.03727 9.61519 8.67209 7.97761 15.869C6.03966 24.4311 11.3448 31.8561 16.3354 36.666C19.5079 39.7117 24.4946 39.708 27.6451 36.6672L27.6476 36.6647C32.6562 31.8551 37.9604 24.4481 36.0223 15.8868L36.0223 15.8867C34.3933 8.6893 28.2704 5.04574 22.006 5.04151ZM38.7044 15.2796C36.74 6.60036 29.3055 2.29644 22.0078 2.29151C14.71 2.28658 7.27029 6.58065 5.29592 15.2598L5.2956 15.2613C3.01732 25.3253 9.29829 33.7032 14.4275 38.6466L14.4292 38.6482C18.6631 42.7144 25.3351 42.718 29.5542 38.6466C34.7019 33.7027 40.9827 25.3437 38.7044 15.2796Z" fill="#B7D44B"/>
<g opacity="0.4">
<path fill-rule="evenodd" clip-rule="evenodd" d="M17.4326 15.5277C17.9696 14.9908 18.8402 14.9908 19.3772 15.5277L26.6372 22.7877C27.1741 23.3247 27.1741 24.1953 26.6372 24.7323C26.1002 25.2692 25.2296 25.2692 24.6926 24.7323L17.4326 17.4723C16.8957 16.9353 16.8957 16.0647 17.4326 15.5277Z" fill="#B7D44B"/>
<path fill-rule="evenodd" clip-rule="evenodd" d="M26.5656 15.601C27.1026 16.1379 27.1026 17.0085 26.5656 17.5455L19.3056 24.8055C18.7686 25.3425 17.898 25.3425 17.361 24.8055C16.8241 24.2685 16.8241 23.3979 17.361 22.861L24.621 15.601C25.158 15.064 26.0286 15.064 26.5656 15.601Z" fill="#B7D44B"/>
</g>
</svg>
