<svg width="44" height="44" viewBox="0 0 44 44" fill="none" xmlns="http://www.w3.org/2000/svg">
<path fill-rule="evenodd" clip-rule="evenodd" d="M6.47227 6.47211C5.53453 7.40985 5.04167 9.15668 5.04167 12.8332V31.1665C5.04167 34.843 5.53453 36.5898 6.47227 37.5276C7.41001 38.4653 9.15684 38.9582 12.8333 38.9582H31.1667C34.8432 38.9582 36.59 38.4653 37.5277 37.5276C38.4655 36.5898 38.9583 34.843 38.9583 31.1665V20.1665C38.9583 16.49 38.4655 14.7432 37.5277 13.8054C36.59 12.8677 34.8432 12.3748 31.1667 12.3748H25.6667C24.6259 12.3748 23.7814 12.2215 23.0625 11.787C22.4207 11.3991 22.0028 10.8466 21.6961 10.441C21.6765 10.4151 21.6573 10.3898 21.6386 10.3652L21.6333 10.3582L21.6333 10.3582L18.8833 6.6915C18.328 5.95108 18.0696 5.63589 17.7146 5.42268C17.3923 5.22901 16.8393 5.0415 15.5833 5.0415H12.8333C9.15684 5.0415 7.41001 5.53437 6.47227 6.47211ZM4.52773 4.52757C6.33999 2.71531 9.1765 2.2915 12.8333 2.2915H15.5833C17.0774 2.2915 18.2019 2.50733 19.1308 3.06533C19.9905 3.58181 20.5469 4.32494 21.023 4.96092C21.0432 4.98799 21.0633 5.01485 21.0833 5.0415L23.8308 8.7048C24.2136 9.20839 24.334 9.34227 24.485 9.43349C24.6002 9.50314 24.8741 9.62484 25.6667 9.62484H31.1667C34.8235 9.62484 37.66 10.0486 39.4723 11.8609C41.2845 13.6732 41.7083 16.5097 41.7083 20.1665V31.1665C41.7083 34.8233 41.2845 37.6599 39.4723 39.4721C37.66 41.2844 34.8235 41.7082 31.1667 41.7082H12.8333C9.1765 41.7082 6.33999 41.2844 4.52773 39.4721C2.71547 37.6599 2.29167 34.8233 2.29167 31.1665V12.8332C2.29167 9.17633 2.71547 6.33983 4.52773 4.52757Z" fill="#B7D44B"/>
<path opacity="0.4" fill-rule="evenodd" clip-rule="evenodd" d="M13.2917 3.6665C13.2917 2.90711 13.9073 2.2915 14.6667 2.2915H31.1667C33.212 2.2915 34.9985 2.80376 36.2639 4.06923C37.5294 5.33471 38.0417 7.12122 38.0417 9.1665V11.6965C38.0417 12.4559 37.4261 13.0715 36.6667 13.0715C35.9073 13.0715 35.2917 12.4559 35.2917 11.6965V9.1665C35.2917 7.54512 34.8873 6.58163 34.3194 6.01378C33.7515 5.44592 32.7881 5.0415 31.1667 5.0415H14.6667C13.9073 5.0415 13.2917 4.4259 13.2917 3.6665Z" fill="#B7D44B"/>
</svg>
