<svg width="44" height="44" viewBox="0 0 44 44" fill="none" xmlns="http://www.w3.org/2000/svg">
<path d="M22.6783 3.94179L39.1783 10.5417C39.82 10.7984 40.3334 11.5684 40.3334 12.2467V18.3334C40.3334 19.3417 39.5084 20.1667 38.5 20.1667H5.50002C4.49169 20.1667 3.66669 19.3417 3.66669 18.3334V12.2467C3.66669 11.5684 4.18003 10.7984 4.8217 10.5417L21.3217 3.94179C21.6884 3.79512 22.3117 3.79512 22.6783 3.94179Z" stroke="#B7D44B" stroke-width="2.5" stroke-miterlimit="10" stroke-linecap="round" stroke-linejoin="round"/>
<path d="M40.3334 40.3333H3.66669V34.8333C3.66669 33.825 4.49169 33 5.50002 33H38.5C39.5084 33 40.3334 33.825 40.3334 34.8333V40.3333Z" stroke="#B7D44B" stroke-width="2.5" stroke-miterlimit="10" stroke-linecap="round" stroke-linejoin="round"/>
<path opacity="0.4" d="M7.33331 33.0001V20.1667" stroke="#B7D44B" stroke-width="2.5" stroke-miterlimit="10" stroke-linecap="round" stroke-linejoin="round"/>
<path opacity="0.4" d="M14.6667 33.0001V20.1667" stroke="#B7D44B" stroke-width="2.5" stroke-miterlimit="10" stroke-linecap="round" stroke-linejoin="round"/>
<path opacity="0.4" d="M22 33.0001V20.1667" stroke="#B7D44B" stroke-width="2.5" stroke-miterlimit="10" stroke-linecap="round" stroke-linejoin="round"/>
<path opacity="0.4" d="M29.3333 33.0001V20.1667" stroke="#B7D44B" stroke-width="2.5" stroke-miterlimit="10" stroke-linecap="round" stroke-linejoin="round"/>
<path opacity="0.4" d="M36.6667 33.0001V20.1667" stroke="#B7D44B" stroke-width="2.5" stroke-miterlimit="10" stroke-linecap="round" stroke-linejoin="round"/>
<path d="M1.83331 40.3333H42.1666" stroke="#B7D44B" stroke-width="2.5" stroke-miterlimit="10" stroke-linecap="round" stroke-linejoin="round"/>
<path opacity="0.4" d="M22 15.5833C23.5188 15.5833 24.75 14.352 24.75 12.8333C24.75 11.3145 23.5188 10.0833 22 10.0833C20.4812 10.0833 19.25 11.3145 19.25 12.8333C19.25 14.352 20.4812 15.5833 22 15.5833Z" stroke="#B7D44B" stroke-width="2.5" stroke-miterlimit="10" stroke-linecap="round" stroke-linejoin="round"/>
</svg>
