<svg width="44" height="44" viewBox="0 0 44 44" fill="none" xmlns="http://www.w3.org/2000/svg">
<path fill-rule="evenodd" clip-rule="evenodd" d="M6.28892 9.37677C5.23485 10.3555 4.50998 11.9587 4.50998 14.52V23.9617C4.50998 25.8138 4.88954 27.1591 5.48303 28.1209C6.0662 29.0659 6.91231 29.7335 8.02869 30.1515C8.37322 30.2765 8.72454 30.3767 9.07221 30.4323C9.10057 30.4369 9.12878 30.4423 9.1568 30.4486C9.77123 30.5868 10.4556 30.6533 11.2016 30.6533H27.3166C29.5259 30.6533 31.1568 30.1008 32.2294 29.1049C33.2834 28.1261 34.0083 26.5229 34.0083 23.9617V14.52C34.0083 13.7666 33.9294 13.1022 33.8116 12.4258C33.4766 10.7514 32.7201 9.65572 31.7027 8.9527C30.6524 8.22692 29.1895 7.82837 27.3166 7.82837H11.2016C8.9924 7.82837 7.36144 8.38086 6.28892 9.37677ZM4.41769 7.36157C6.1685 5.73584 8.57086 5.07837 11.2016 5.07837H27.3166C29.5504 5.07837 31.6168 5.55065 33.266 6.69028C34.9452 7.8506 36.0572 9.61051 36.5121 11.9061L36.5177 11.9363C36.6551 12.7213 36.7583 13.5557 36.7583 14.52V23.9617C36.7583 27.0471 35.8698 29.4772 34.1006 31.1201C32.3498 32.7458 29.9474 33.4033 27.3166 33.4033H11.2016C10.3123 33.4033 9.43423 33.3258 8.59451 33.1407C8.04381 33.0491 7.53209 32.8971 7.08342 32.7339L7.07239 32.7299L7.07241 32.7299C5.44153 32.121 4.0803 31.0843 3.14276 29.565C2.21459 28.0609 1.75998 26.1796 1.75998 23.9617V14.52C1.75998 11.4346 2.64844 9.00443 4.41769 7.36157Z" fill="#B7D44B"/>
<path opacity="0.4" fill-rule="evenodd" clip-rule="evenodd" d="M34.1936 11.1986C34.5221 10.8718 34.9931 10.7324 35.4466 10.8279C37.4395 11.2474 39.1845 12.1879 40.4178 13.785C41.6453 15.3745 42.2583 17.4746 42.2583 20.02V29.4617C42.2583 32.5471 41.3699 34.9772 39.6006 36.6201C37.8498 38.2458 35.4474 38.9033 32.8167 38.9033H16.7016C15.2296 38.9033 13.8289 38.7056 12.571 38.2294C9.9212 37.2477 8.12592 35.1773 7.50632 32.0579C7.41568 31.6016 7.56194 31.1304 7.89505 30.8056C8.22815 30.4808 8.70291 30.3465 9.1568 30.4486C9.77124 30.5868 10.4556 30.6533 11.2016 30.6533H27.3167C29.5259 30.6533 31.1568 30.1008 32.2294 29.1049C33.2834 28.1261 34.0083 26.5229 34.0083 23.9617V14.52C34.0083 13.7371 33.9418 13.061 33.8164 12.4497C33.7232 11.9957 33.865 11.5254 34.1936 11.1986ZM36.7551 14.1968C36.7572 14.3036 36.7583 14.4113 36.7583 14.52V23.9617C36.7583 27.0471 35.8699 29.4772 34.1006 31.1201C32.3498 32.7458 29.9474 33.4033 27.3167 33.4033H11.2016C11.0869 33.4033 10.9724 33.402 10.8582 33.3994C11.4638 34.508 12.3741 35.2246 13.5302 35.652L13.541 35.656L13.541 35.6561C14.4084 35.9851 15.4624 36.1533 16.7016 36.1533H32.8167C35.0259 36.1533 36.6568 35.6008 37.7294 34.6049C38.7834 33.6261 39.5083 32.0229 39.5083 29.4617V20.02C39.5083 17.9087 39.003 16.4522 38.2413 15.4658C37.8453 14.953 37.3507 14.5292 36.7551 14.1968Z" fill="#B7D44B"/>
<path fill-rule="evenodd" clip-rule="evenodd" d="M19.25 15.7849C17.3363 15.7849 15.785 17.3363 15.785 19.2499C15.785 21.1636 17.3363 22.715 19.25 22.715C21.1637 22.715 22.715 21.1636 22.715 19.2499C22.715 17.3363 21.1637 15.7849 19.25 15.7849ZM13.035 19.2499C13.035 15.8175 15.8176 13.0349 19.25 13.0349C22.6825 13.0349 25.465 15.8175 25.465 19.2499C25.465 22.6824 22.6825 25.465 19.25 25.465C15.8176 25.465 13.035 22.6824 13.035 19.2499Z" fill="#B7D44B"/>
<path opacity="0.4" fill-rule="evenodd" clip-rule="evenodd" d="M8.76334 13.8416C9.52273 13.8416 10.1383 14.4572 10.1383 15.2166V23.2833C10.1383 24.0427 9.52273 24.6583 8.76334 24.6583C8.00394 24.6583 7.38834 24.0427 7.38834 23.2833V15.2166C7.38834 14.4572 8.00394 13.8416 8.76334 13.8416Z" fill="#B7D44B"/>
<path opacity="0.4" fill-rule="evenodd" clip-rule="evenodd" d="M29.7367 13.8416C30.4961 13.8416 31.1117 14.4572 31.1117 15.2166V23.2833C31.1117 24.0427 30.4961 24.6583 29.7367 24.6583C28.9773 24.6583 28.3617 24.0427 28.3617 23.2833V15.2166C28.3617 14.4572 28.9773 13.8416 29.7367 13.8416Z" fill="#B7D44B"/>
</svg>
