<svg width="44" height="44" viewBox="0 0 44 44" fill="none" xmlns="http://www.w3.org/2000/svg">
<path opacity="0.4" fill-rule="evenodd" clip-rule="evenodd" d="M19.3417 5.12866C18.4475 5.12866 17.6258 5.25894 17.0779 5.46607L17.0751 5.46715L7.94697 8.89476C7.94668 8.89487 7.94726 8.89465 7.94697 8.89476C7.21642 9.17058 6.47552 9.77917 5.91236 10.5957C5.34908 11.4125 5.04169 12.3233 5.04169 13.1082V26.6932C5.04169 27.4948 5.31533 28.5295 5.81828 29.5375C6.32143 30.5458 6.98225 31.3833 7.62294 31.8605L7.62505 31.862L15.4659 37.7243C15.4667 37.7249 15.4675 37.7255 15.4683 37.7261C16.4933 38.483 17.8967 38.8987 19.3577 38.8987C20.8194 38.8987 22.2165 38.4827 23.2304 37.7283C23.231 37.7279 23.2315 37.7275 23.2321 37.7271L28.3168 33.9166H21.5234C19.3758 33.9166 17.4927 33.6793 16.2465 32.4542C14.9939 31.2228 14.7492 29.3543 14.74 27.2492L14.74 27.2432V17.2882C14.74 15.3498 14.9358 13.6332 15.8997 12.4122C16.9259 11.1121 18.519 10.7236 20.3051 10.6174C20.3322 10.6157 20.3595 10.6149 20.3867 10.6149C20.5371 10.6149 20.694 10.611 20.879 10.6065L20.8912 10.6062C21.076 10.6016 21.2842 10.5966 21.505 10.5966H32.762C32.214 9.81463 31.4758 9.18229 30.7174 8.89451C30.717 8.89434 30.7179 8.89467 30.7174 8.89451L21.6055 5.46607C21.0576 5.25894 20.2358 5.12866 19.3417 5.12866ZM22.577 2.89341C21.6217 2.53245 20.4455 2.37866 19.3417 2.37866C18.2381 2.37866 17.0622 2.53238 16.107 2.89316C16.1065 2.89336 16.1076 2.89296 16.107 2.89316L6.97834 6.321L6.97643 6.32171C5.61726 6.83438 4.46016 7.85762 3.64853 9.03448C2.8368 10.2115 2.29169 11.6565 2.29169 13.1082V26.6932C2.29169 28.0367 2.72388 29.4953 3.35761 30.7653C3.99092 32.0345 4.89723 33.2591 5.97942 34.0653C5.97907 34.065 5.97976 34.0656 5.97942 34.0653L13.825 39.9311L13.8309 39.9355C15.4091 41.1025 17.4145 41.6487 19.3577 41.6487C21.3006 41.6487 23.3036 41.1026 24.8746 39.9327L24.8779 39.9302L32.7063 34.0636C32.7369 34.0406 32.7666 34.0164 32.7952 33.991C32.8587 33.9345 32.9245 33.8795 33.0095 33.8087C33.0895 33.742 33.1887 33.6595 33.2902 33.5693C33.7169 33.19 33.8648 32.5865 33.6619 32.0529C33.4591 31.5193 32.9476 31.1666 32.3767 31.1666H21.5234C19.3626 31.1666 18.5507 30.8631 18.1744 30.4931C17.8047 30.1297 17.4995 29.3495 17.49 27.2402V17.2882C17.49 15.3584 17.7342 14.5266 18.0583 14.116C18.3179 13.7871 18.854 13.4632 20.4298 13.3648C20.601 13.3642 20.7729 13.3599 20.9332 13.356L20.9592 13.3553C21.1457 13.3507 21.3225 13.3466 21.505 13.3466H34.8884C35.3106 13.3466 35.7095 13.1525 35.9702 12.8203C36.2308 12.488 36.3244 12.0544 36.2238 11.6443C35.6725 9.39489 33.9104 7.16365 31.6906 6.32246L22.577 2.89341C22.5773 2.89352 22.5767 2.89329 22.577 2.89341Z" fill="#B7D44B"/>
<path fill-rule="evenodd" clip-rule="evenodd" d="M14.7584 20.5698C14.7584 19.8104 15.374 19.1948 16.1334 19.1948H40.3334C41.0927 19.1948 41.7084 19.8104 41.7084 20.5698C41.7084 21.3292 41.0927 21.9448 40.3334 21.9448H16.1334C15.374 21.9448 14.7584 21.3292 14.7584 20.5698Z" fill="#B7D44B"/>
<path fill-rule="evenodd" clip-rule="evenodd" d="M20.4521 13.3283C18.8788 13.4354 18.3388 13.7611 18.0766 14.0932C17.752 14.5044 17.5084 15.3328 17.5084 17.2517V27.2067C17.5084 29.3288 17.8119 30.112 18.1795 30.4754C18.5527 30.8443 19.3614 31.1484 21.5234 31.1484H34.9434C37.0738 31.1484 37.8925 30.8626 38.2735 30.5062C38.6271 30.1755 38.9395 29.4583 38.9584 27.4388V17.2701C38.9584 15.1378 38.6545 14.3553 38.2873 13.9922C37.9129 13.6221 37.1039 13.3195 34.9404 13.3101H21.5234C21.3408 13.3101 21.164 13.3142 20.9774 13.3188L20.9515 13.3194C20.7925 13.3234 20.6219 13.3276 20.4521 13.3283ZM20.9097 10.5696C21.0944 10.5651 21.3026 10.5601 21.5234 10.5601H34.9492C37.0919 10.5692 38.9773 10.8074 40.2207 12.0366C41.4714 13.2732 41.7084 15.149 41.7084 17.2701V27.4574C41.6899 29.5033 41.4251 31.324 40.1519 32.5147C38.9059 33.68 37.0479 33.8984 34.9434 33.8984H21.5234C19.377 33.8984 17.4907 33.6616 16.246 32.431C14.9956 31.1947 14.7584 29.3196 14.7584 27.2067V17.2517C14.7584 15.3206 14.9547 13.6098 15.918 12.3894C16.9415 11.0927 18.5301 10.6971 20.316 10.5812C20.3457 10.5793 20.3753 10.5784 20.405 10.5784C20.5555 10.5784 20.7125 10.5745 20.8973 10.5699L20.9097 10.5696Z" fill="#B7D44B"/>
<path fill-rule="evenodd" clip-rule="evenodd" d="M19.3784 27.9766C19.3784 27.2172 19.994 26.6016 20.7534 26.6016H23.1917C23.9511 26.6016 24.5667 27.2172 24.5667 27.9766C24.5667 28.736 23.9511 29.3516 23.1917 29.3516H20.7534C19.994 29.3516 19.3784 28.736 19.3784 27.9766Z" fill="#B7D44B"/>
<path fill-rule="evenodd" clip-rule="evenodd" d="M25.6667 27.9766C25.6667 27.2172 26.2823 26.6016 27.0417 26.6016H33.0367C33.7961 26.6016 34.4117 27.2172 34.4117 27.9766C34.4117 28.736 33.7961 29.3516 33.0367 29.3516H27.0417C26.2823 29.3516 25.6667 28.736 25.6667 27.9766Z" fill="#B7D44B"/>
</svg>
