<svg width="44" height="44" viewBox="0 0 44 44" fill="none" xmlns="http://www.w3.org/2000/svg">
<path fill-rule="evenodd" clip-rule="evenodd" d="M20.625 10.1932C20.625 9.43385 21.2406 8.81824 22 8.81824H40.3333C41.0927 8.81824 41.7083 9.43385 41.7083 10.1932C41.7083 10.9526 41.0927 11.5682 40.3333 11.5682H22C21.2406 11.5682 20.625 10.9526 20.625 10.1932Z" fill="#B7D44B"/>
<path fill-rule="evenodd" clip-rule="evenodd" d="M23.7798 5.44923C23.6116 5.61626 23.375 6.07628 23.375 7.69996V15.235C23.375 16.8586 23.6116 17.3187 23.7798 17.4857C23.9519 17.6565 24.4259 17.8933 26.07 17.8933H36.2633C37.9074 17.8933 38.3814 17.6565 38.5535 17.4857C38.7218 17.3187 38.9583 16.8586 38.9583 15.235V7.69996C38.9583 6.07628 38.7218 5.61626 38.5535 5.44923C38.3814 5.27844 37.9074 5.04163 36.2633 5.04163H26.07C24.4259 5.04163 23.9519 5.27844 23.7798 5.44923ZM21.8427 3.49736C22.8897 2.45814 24.4508 2.29163 26.07 2.29163H36.2633C37.8826 2.29163 39.4436 2.45814 40.4907 3.49736C41.5416 4.54033 41.7083 6.09697 41.7083 7.69996V15.235C41.7083 16.8379 41.5416 18.3946 40.4907 19.4376C39.4436 20.4768 37.8826 20.6433 36.2633 20.6433H26.07C24.4508 20.6433 22.8897 20.4768 21.8427 19.4376C20.7918 18.3946 20.625 16.8379 20.625 15.235V7.69996C20.625 6.09697 20.7918 4.54033 21.8427 3.49736Z" fill="#B7D44B"/>
<path fill-rule="evenodd" clip-rule="evenodd" d="M2.29166 31.2766C2.29166 30.5172 2.90726 29.9016 3.66666 29.9016H22C22.7594 29.9016 23.375 30.5172 23.375 31.2766C23.375 32.036 22.7594 32.6516 22 32.6516H3.66666C2.90726 32.6516 2.29166 32.036 2.29166 31.2766Z" fill="#B7D44B"/>
<path fill-rule="evenodd" clip-rule="evenodd" d="M5.4465 26.5326C5.27821 26.6996 5.04166 27.1597 5.04166 28.7833V36.3183C5.04166 37.942 5.27821 38.402 5.4465 38.5691C5.61858 38.7399 6.09255 38.9767 7.73666 38.9767H17.93C19.5741 38.9767 20.0481 38.7399 20.2201 38.5691C20.3884 38.402 20.625 37.942 20.625 36.3183V28.7833C20.625 27.1597 20.3884 26.6996 20.2201 26.5326C20.0481 26.3618 19.5741 26.125 17.93 26.125H7.73666C6.09255 26.125 5.61858 26.3618 5.4465 26.5326ZM3.50931 24.5807C4.5564 23.5415 6.11743 23.375 7.73666 23.375H17.93C19.5492 23.375 21.1102 23.5415 22.1573 24.5807C23.2082 25.6237 23.375 27.1803 23.375 28.7833V36.3183C23.375 37.9213 23.2082 39.478 22.1573 40.5209C21.1102 41.5602 19.5492 41.7267 17.93 41.7267H7.73666C6.11743 41.7267 4.5564 41.5602 3.50931 40.5209C2.45844 39.478 2.29166 37.9213 2.29166 36.3183V28.7833C2.29166 27.1803 2.45844 25.6237 3.50931 24.5807Z" fill="#B7D44B"/>
<path opacity="0.4" fill-rule="evenodd" clip-rule="evenodd" d="M40.3333 26.125C41.0927 26.125 41.7083 26.7406 41.7083 27.5C41.7083 35.3544 35.3544 41.7083 27.5 41.7083C27.0046 41.7083 26.5475 41.4419 26.3035 41.0108C26.0594 40.5797 26.0661 40.0507 26.3209 39.6259L28.2459 36.4176C28.6366 35.7664 29.4812 35.5552 30.1324 35.9459C30.7836 36.3366 30.9947 37.1812 30.604 37.8324L30.1066 38.6615C35.1833 37.4837 38.9583 32.9387 38.9583 27.5C38.9583 26.7406 39.5739 26.125 40.3333 26.125Z" fill="#B7D44B"/>
<path opacity="0.4" fill-rule="evenodd" clip-rule="evenodd" d="M13.8934 5.33851C8.81668 6.51629 5.04166 11.0612 5.04166 16.5C5.04166 17.2594 4.42605 17.875 3.66666 17.875C2.90726 17.875 2.29166 17.2594 2.29166 16.5C2.29166 8.64557 8.6456 2.29163 16.5 2.29163C16.9954 2.29163 17.4524 2.55809 17.6965 2.98916C17.9406 3.42023 17.9339 3.94927 17.679 4.37405L15.7541 7.58238C15.3634 8.23356 14.5188 8.44472 13.8676 8.05402C13.2164 7.66332 13.0053 6.81871 13.396 6.16753L13.8934 5.33851Z" fill="#B7D44B"/>
</svg>
