<svg width="104" height="104" viewBox="0 0 104 104" fill="none" xmlns="http://www.w3.org/2000/svg">
<path opacity="0.4" d="M95.3332 32.1969V58.1969C95.3332 64.6969 93.1665 70.1136 89.3532 73.927C85.5832 77.697 80.1665 79.8636 73.6665 79.8636V89.0936C73.6665 92.5603 69.8099 94.6404 66.9499 92.7337L47.6665 79.8636H38.4799C38.8265 78.5636 38.9998 77.2203 38.9998 75.8336C38.9998 71.4136 37.3098 67.3404 34.5365 64.2637C31.4165 60.7104 26.7798 58.5003 21.6665 58.5003C16.8132 58.5003 12.3932 60.4937 9.22986 63.7437C8.83986 62.0104 8.6665 60.1469 8.6665 58.1969V32.1969C8.6665 19.1969 17.3332 10.5303 30.3332 10.5303H73.6665C86.6665 10.5303 95.3332 19.1969 95.3332 32.1969Z" stroke="#B7D44B" stroke-width="4.5" stroke-miterlimit="10" stroke-linecap="round" stroke-linejoin="round"/>
<path d="M39.0002 75.8333C39.0002 79.0833 38.0902 82.16 36.4869 84.76C35.5769 86.32 34.4069 87.7067 33.0635 88.8333C30.0302 91.5633 26.0435 93.1667 21.6668 93.1667C15.3402 93.1667 9.83677 89.7867 6.84677 84.76C5.24344 82.16 4.3335 79.0833 4.3335 75.8333C4.3335 70.3733 6.84683 65.4767 10.8335 62.3134C13.8235 59.93 17.5935 58.5 21.6668 58.5C31.2435 58.5 39.0002 66.2567 39.0002 75.8333Z" stroke="#B7D44B" stroke-width="4.5" stroke-miterlimit="10" stroke-linecap="round" stroke-linejoin="round"/>
<path d="M14.9067 75.8335L19.1967 80.1235L28.4267 71.5869" stroke="#B7D44B" stroke-width="4.5" stroke-linecap="round" stroke-linejoin="round"/>
<path d="M36.8335 45.5H67.1668" stroke="#B7D44B" stroke-width="4.5" stroke-miterlimit="10" stroke-linecap="round" stroke-linejoin="round"/>
</svg>
