<svg width="29" height="28" viewBox="0 0 29 28" fill="none" xmlns="http://www.w3.org/2000/svg">
<g clip-path="url(#clip0_80_5461)">
<path d="M0.144531 13.44C0.144531 7.1043 0.144531 3.93648 2.11277 1.96824C4.08102 0 7.24883 0 13.5845 0H14.7045C21.0402 0 24.208 0 26.1763 1.96824C28.1445 3.93648 28.1445 7.1043 28.1445 13.44V14.56C28.1445 20.8957 28.1445 24.0635 26.1763 26.0318C24.208 28 21.0402 28 14.7045 28H13.5845C7.24883 28 4.08102 28 2.11277 26.0318C0.144531 24.0635 0.144531 20.8957 0.144531 14.56V13.44Z" fill="#0077FF"/>
<path d="M15.0424 20.1716C8.66075 20.1716 5.02081 15.7966 4.86914 8.5166H8.06581C8.17081 13.8599 10.5274 16.1233 12.3941 16.5899V8.5166H15.4042V13.1249C17.2475 12.9266 19.184 10.8266 19.8373 8.5166H22.8474C22.3457 11.3633 20.2457 13.4633 18.7524 14.3266C20.2457 15.0266 22.6375 16.8583 23.5475 20.1716H20.234C19.5224 17.9549 17.7492 16.2399 15.4042 16.0066V20.1716H15.0424Z" fill="white"/>
</g>
<defs>
<clipPath id="clip0_80_5461">
<rect width="28" height="28" fill="white" transform="translate(0.144531)"/>
</clipPath>
</defs>
</svg>
