<svg width="44" height="44" viewBox="0 0 44 44" fill="none" xmlns="http://www.w3.org/2000/svg">
<path fill-rule="evenodd" clip-rule="evenodd" d="M5.6734 5.67364C8.11993 3.22712 11.7809 2.29175 16.4998 2.29175H27.4998C32.2188 2.29175 35.8798 3.22712 38.3263 5.67364C40.7728 8.12017 41.7082 11.7811 41.7082 16.5001V27.5001C41.7082 32.219 40.7728 35.88 38.3263 38.3265C35.8798 40.773 32.2188 41.7084 27.4998 41.7084H16.4998C11.7809 41.7084 8.11993 40.773 5.6734 38.3265C3.22687 35.88 2.2915 32.219 2.2915 27.5001V16.5001C2.2915 11.7811 3.22687 8.12017 5.6734 5.67364ZM7.61794 7.61819C5.93947 9.29666 5.0415 12.0524 5.0415 16.5001V27.5001C5.0415 31.9478 5.93947 34.7035 7.61794 36.382C9.29642 38.0605 12.0521 38.9584 16.4998 38.9584H27.4998C31.9476 38.9584 34.7033 38.0605 36.3817 36.382C38.0602 34.7035 38.9582 31.9478 38.9582 27.5001V16.5001C38.9582 12.0524 38.0602 9.29666 36.3817 7.61819C34.7033 5.93971 31.9476 5.04175 27.4998 5.04175H16.4998C12.0521 5.04175 9.29642 5.93971 7.61794 7.61819Z" fill="#B7D44B"/>
<g opacity="0.4">
<path fill-rule="evenodd" clip-rule="evenodd" d="M14.6667 11.9167C13.4094 11.9167 12.375 12.9511 12.375 14.2084V22.0949C13.0633 21.7415 13.8425 21.5417 14.6667 21.5417H29.3333C30.1575 21.5417 30.9367 21.7415 31.625 22.0949V14.2084C31.625 12.9511 30.5906 11.9167 29.3333 11.9167H14.6667ZM34.375 26.5834V14.2084C34.375 11.4324 32.1094 9.16675 29.3333 9.16675H14.6667C11.8906 9.16675 9.625 11.4324 9.625 14.2084V26.5834C9.625 27.3428 10.2406 27.9584 11 27.9584C11.7594 27.9584 12.375 27.3428 12.375 26.5834C12.375 25.3261 13.4094 24.2917 14.6667 24.2917H29.3333C30.5906 24.2917 31.625 25.3261 31.625 26.5834C31.625 27.3428 32.2406 27.9584 33 27.9584C33.7594 27.9584 34.375 27.3428 34.375 26.5834Z" fill="#B7D44B"/>
<path fill-rule="evenodd" clip-rule="evenodd" d="M31.625 28.875C31.625 28.1156 32.2406 27.5 33 27.5H34.8333C35.5927 27.5 36.2083 28.1156 36.2083 28.875C36.2083 29.6344 35.5927 30.25 34.8333 30.25H33C32.2406 30.25 31.625 29.6344 31.625 28.875Z" fill="#B7D44B"/>
<path fill-rule="evenodd" clip-rule="evenodd" d="M7.7915 28.875C7.7915 28.1156 8.40711 27.5 9.1665 27.5H10.9998C11.7592 27.5 12.3748 28.1156 12.3748 28.875C12.3748 29.6344 11.7592 30.25 10.9998 30.25H9.1665C8.40711 30.25 7.7915 29.6344 7.7915 28.875Z" fill="#B7D44B"/>
<path fill-rule="evenodd" clip-rule="evenodd" d="M9.625 20.1667C9.625 17.3906 11.8906 15.125 14.6667 15.125H29.3333C32.1094 15.125 34.375 17.3906 34.375 20.1667V25.6667C34.375 26.4261 33.7594 27.0417 33 27.0417C32.2406 27.0417 31.625 26.4261 31.625 25.6667V20.1667C31.625 18.9094 30.5906 17.875 29.3333 17.875H14.6667C13.4094 17.875 12.375 18.9094 12.375 20.1667V25.6667C12.375 26.4261 11.7594 27.0417 11 27.0417C10.2406 27.0417 9.625 26.4261 9.625 25.6667V20.1667Z" fill="#B7D44B"/>
<path fill-rule="evenodd" clip-rule="evenodd" d="M14.6667 24.2917C13.4094 24.2917 12.375 25.3261 12.375 26.5834V27.5001H17.4167C18.1761 27.5001 18.7917 28.1157 18.7917 28.8751C18.7917 30.6457 20.2294 32.0834 22 32.0834C23.7706 32.0834 25.2083 30.6457 25.2083 28.8751C25.2083 28.1157 25.8239 27.5001 26.5833 27.5001H31.625V26.5834C31.625 25.3261 30.5906 24.2917 29.3333 24.2917H14.6667ZM9.625 26.5834C9.625 23.8074 11.8906 21.5417 14.6667 21.5417H29.3333C32.1094 21.5417 34.375 23.8074 34.375 26.5834V28.8751C34.375 29.6345 33.7594 30.2501 33 30.2501H27.7987C27.1776 32.8771 24.8162 34.8334 22 34.8334C19.1838 34.8334 16.8224 32.8771 16.2013 30.2501H11C10.2406 30.2501 9.625 29.6345 9.625 28.8751V26.5834Z" fill="#B7D44B"/>
</g>
</svg>
