<svg width="44" height="44" viewBox="0 0 44 44" fill="none" xmlns="http://www.w3.org/2000/svg">
<path fill-rule="evenodd" clip-rule="evenodd" d="M37.1052 5.15196C33.743 6.49767 29.6979 8.9031 25.8921 11.7242C22.0808 14.5494 18.5964 17.7271 16.3296 20.5643C16.329 20.565 16.3284 20.5658 16.3278 20.5665L13.8295 23.7215C15.3135 24.1114 16.7167 24.9104 17.8941 26.0878C19.0438 27.2375 19.8133 28.5628 20.1979 29.9996L23.3032 27.5091L23.3033 27.509C29.0391 22.9097 35.9731 13.5334 38.7089 6.71158L38.7145 6.69762L38.7146 6.69765C38.9133 6.2174 38.7841 5.75769 38.4392 5.42187L38.413 5.39558C38.135 5.10995 37.67 4.94642 37.1052 5.15196ZM12.4686 26.2487C12.3806 26.2441 12.3025 26.2395 12.2319 26.2354C11.9659 26.2199 11.8073 26.2107 11.6319 26.2282C11.1634 26.2751 10.7034 26.0789 10.4129 25.7082C10.1224 25.3376 10.0418 24.844 10.1993 24.4002C10.4542 23.682 10.8452 23.0087 11.335 22.4418L14.1755 18.8548L14.1791 18.8502C16.6424 15.7663 20.3254 12.4275 24.2544 9.51502C28.1835 6.60251 32.4455 4.05208 36.1017 2.5915L36.1314 2.58004C37.7174 1.98866 39.3305 2.40549 40.3709 3.46448C41.4089 4.48453 41.9324 6.10454 41.2588 7.7414C38.3464 14.9989 31.1295 24.7584 25.0236 29.6544L21.4121 32.551C21.3935 32.5659 21.3745 32.5803 21.3552 32.5942C20.8647 32.9474 20.297 33.319 19.6246 33.5832C19.2013 33.7495 18.7232 33.6957 18.3474 33.4396C17.9716 33.1835 17.7468 32.7581 17.7468 32.3034C17.7468 32.0183 17.7306 31.7279 17.6903 31.4728L17.6851 31.4369C17.5246 30.2109 16.9735 29.0563 15.9495 28.0323C14.9241 27.0069 13.6988 26.4192 12.4686 26.2487Z" fill="#B7D44B"/>
<path fill-rule="evenodd" clip-rule="evenodd" d="M12.4864 26.2487C12.1543 26.2315 11.8539 26.2198 11.5821 26.2334C11.5687 26.234 11.5552 26.2345 11.5418 26.2348C8.60089 26.2954 5.88549 28.4081 5.52859 31.6649L5.0324 36.1857C4.84297 37.7958 6.20452 39.1439 7.78548 38.967L7.78842 38.9666L12.2833 38.4733C13.8029 38.2709 15.0359 37.6334 15.9281 36.7425C17.1167 35.5372 17.7468 33.9622 17.7468 32.3034C17.7468 32.1154 17.7357 31.9614 17.7216 31.7662C17.7138 31.6573 17.7051 31.5355 17.6968 31.388C17.5281 30.1802 16.9781 29.0427 15.9678 28.0324L15.9607 28.0253C14.9443 26.9939 13.7248 26.4197 12.4864 26.2487ZM11.4652 23.4858C11.9052 23.4652 12.3483 23.4876 12.6857 23.5053C12.7205 23.5072 12.7553 23.5103 12.7899 23.5148C14.6498 23.7555 16.4531 24.6087 17.9159 26.0913C19.3465 27.5233 20.1875 29.2274 20.4301 31.0799C20.4348 31.1152 20.438 31.1506 20.4399 31.1861C20.4435 31.2553 20.4496 31.3429 20.4565 31.4418C20.474 31.6951 20.4968 32.0225 20.4968 32.3034C20.4968 34.6766 19.5879 36.9502 17.8818 38.6779L17.8757 38.684C16.5342 40.0256 14.7298 40.9257 12.6275 41.2017L12.5985 41.2052L8.0914 41.6999C8.09086 41.6999 8.09195 41.6998 8.0914 41.6999C4.76161 42.0716 1.90723 39.2436 2.30052 35.8701L2.79496 31.3653C2.79495 31.3654 2.79496 31.3652 2.79496 31.3653C3.31732 26.5997 7.30006 23.581 11.4652 23.4858Z" fill="#B7D44B"/>
<path opacity="0.4" fill-rule="evenodd" clip-rule="evenodd" d="M16.0601 17.8567C16.0601 17.0973 16.6757 16.4817 17.4351 16.4817C22.9795 16.4817 27.4817 20.984 27.4817 26.5284C27.4817 27.2877 26.8661 27.9034 26.1067 27.9034C25.3473 27.9034 24.7317 27.2877 24.7317 26.5284C24.7317 22.5027 21.4607 19.2317 17.4351 19.2317C16.6757 19.2317 16.0601 18.6161 16.0601 17.8567Z" fill="#B7D44B"/>
</svg>
