<svg width="44" height="44" viewBox="0 0 44 44" fill="none" xmlns="http://www.w3.org/2000/svg">
<path fill-rule="evenodd" clip-rule="evenodd" d="M2.29199 40.3335C2.29199 39.5741 2.9076 38.9585 3.66699 38.9585H40.3337C41.0931 38.9585 41.7087 39.5741 41.7087 40.3335C41.7087 41.0929 41.0931 41.7085 40.3337 41.7085H3.66699C2.9076 41.7085 2.29199 41.0929 2.29199 40.3335Z" fill="#B7D44B"/>
<path fill-rule="evenodd" clip-rule="evenodd" d="M17.5105 3.90096C18.3379 2.83455 19.604 2.29175 21.175 2.29175H22.825C24.396 2.29175 25.6621 2.83455 26.4895 3.90096C27.2679 4.90422 27.5 6.17196 27.5 7.33342V40.3334C27.5 41.0928 26.8844 41.7084 26.125 41.7084H17.875C17.1156 41.7084 16.5 41.0928 16.5 40.3334V7.33342C16.5 6.17196 16.7321 4.90422 17.5105 3.90096ZM19.6832 5.5867C19.4304 5.91261 19.25 6.4782 19.25 7.33342V38.9584H24.75V7.33342C24.75 6.4782 24.5696 5.91261 24.3168 5.5867C24.1129 5.32394 23.729 5.04175 22.825 5.04175H21.175C20.271 5.04175 19.8871 5.32394 19.6832 5.5867Z" fill="#B7D44B"/>
<path opacity="0.4" fill-rule="evenodd" clip-rule="evenodd" d="M5.00975 14.9632C5.75449 13.8833 6.93633 13.2917 8.43333 13.2917H9.9C11.397 13.2917 12.5788 13.8833 13.3236 14.9632C14.0086 15.9564 14.2083 17.1975 14.2083 18.3334V40.3334C14.2083 41.0928 13.5927 41.7084 12.8333 41.7084H5.5C4.74061 41.7084 4.125 41.0928 4.125 40.3334V18.3334C4.125 17.1975 4.32478 15.9564 5.00975 14.9632ZM7.27358 16.5245C7.04189 16.8604 6.875 17.4527 6.875 18.3334V38.9584H11.4583V18.3334C11.4583 17.4527 11.2914 16.8604 11.0597 16.5245C10.8878 16.2752 10.603 16.0417 9.9 16.0417H8.43333C7.73034 16.0417 7.44551 16.2752 7.27358 16.5245Z" fill="#B7D44B"/>
<path opacity="0.4" fill-rule="evenodd" clip-rule="evenodd" d="M30.6767 24.1299C31.4215 23.0501 32.6033 22.4585 34.1003 22.4585H35.567C37.064 22.4585 38.2458 23.0501 38.9906 24.1299C39.6755 25.1232 39.8753 26.3642 39.8753 27.5002V40.3335C39.8753 41.0929 39.2597 41.7085 38.5003 41.7085H31.167C30.4076 41.7085 29.792 41.0929 29.792 40.3335V27.5002C29.792 26.3642 29.9918 25.1232 30.6767 24.1299ZM32.9406 25.6912C32.7089 26.0272 32.542 26.6194 32.542 27.5002V38.9585H37.1253V27.5002C37.1253 26.6194 36.9584 26.0272 36.7267 25.6912C36.5548 25.4419 36.27 25.2085 35.567 25.2085H34.1003C33.3973 25.2085 33.1125 25.4419 32.9406 25.6912Z" fill="#B7D44B"/>
</svg>
