<svg width="44" height="44" viewBox="0 0 44 44" fill="none" xmlns="http://www.w3.org/2000/svg">
<path fill-rule="evenodd" clip-rule="evenodd" d="M2.2915 22.0001C2.2915 11.1207 11.1204 2.29175 21.9998 2.29175C32.8792 2.29175 41.7082 11.1207 41.7082 22.0001C41.7082 22.7595 41.0926 23.3751 40.3332 23.3751C39.5738 23.3751 38.9582 22.7595 38.9582 22.0001C38.9582 12.6395 31.3604 5.04175 21.9998 5.04175C12.6392 5.04175 5.0415 12.6395 5.0415 22.0001C5.0415 31.3607 12.6392 38.9584 21.9998 38.9584C22.7592 38.9584 23.3748 39.574 23.3748 40.3334C23.3748 41.0928 22.7592 41.7084 21.9998 41.7084C11.1204 41.7084 2.2915 32.8795 2.2915 22.0001Z" fill="#B7D44B"/>
<g opacity="0.4">
<path fill-rule="evenodd" clip-rule="evenodd" d="M13.2908 5.50024C13.2908 4.74085 13.9064 4.12524 14.6658 4.12524H16.4991C16.9412 4.12524 17.3564 4.33783 17.6148 4.69655C17.8732 5.05528 17.9434 5.51638 17.8033 5.93573C14.3227 16.3597 14.3227 27.6407 17.8033 38.0648C17.9434 38.4841 17.8732 38.9452 17.6148 39.3039C17.3564 39.6627 16.9412 39.8752 16.4991 39.8752H14.6658C13.9064 39.8752 13.2908 39.2596 13.2908 38.5002C13.2908 37.7541 13.885 37.1468 14.6261 37.1258C11.7151 27.2548 11.7151 16.7457 14.6261 6.87468C13.885 6.85366 13.2908 6.24635 13.2908 5.50024Z" fill="#B7D44B"/>
<path fill-rule="evenodd" clip-rule="evenodd" d="M27.0664 4.19524C27.7871 3.95584 28.5654 4.34599 28.8048 5.06666C30.6294 10.5594 31.5516 16.2791 31.5516 22.0001C31.5516 22.7595 30.936 23.3751 30.1766 23.3751C29.4172 23.3751 28.8016 22.7595 28.8016 22.0001C28.8016 16.5745 27.927 11.1475 26.195 5.9336C25.9556 5.21293 26.3457 4.43464 27.0664 4.19524Z" fill="#B7D44B"/>
<path fill-rule="evenodd" clip-rule="evenodd" d="M4.69545 26.385C5.05367 26.1265 5.51426 26.0559 5.93347 26.1951C11.1474 27.9271 16.5744 28.8017 22 28.8017C22.7594 28.8017 23.375 29.4173 23.375 30.1767C23.375 30.9361 22.7594 31.5517 22 31.5517C16.904 31.5517 11.809 30.82 6.87451 29.3706C6.85479 30.1127 6.24695 30.7083 5.5 30.7083C4.74061 30.7083 4.125 30.0927 4.125 29.3333V27.5C4.125 27.0583 4.33723 26.6434 4.69545 26.385Z" fill="#B7D44B"/>
<path fill-rule="evenodd" clip-rule="evenodd" d="M38.0644 17.8046C27.6404 14.3239 16.3594 14.3239 5.93537 17.8046C5.21507 18.0451 4.43618 17.6561 4.19567 16.9358C3.95516 16.2155 4.3441 15.4366 5.0644 15.1961C16.0537 11.5267 27.946 11.5267 38.9354 15.1961C39.6557 15.4366 40.0446 16.2155 39.8041 16.9358C39.5636 17.6561 38.7847 18.0451 38.0644 17.8046Z" fill="#B7D44B"/>
</g>
<path fill-rule="evenodd" clip-rule="evenodd" d="M36.911 26.4485C38.1269 26.3236 39.2458 26.8697 40.2422 27.8661C41.2443 28.8682 41.797 29.9894 41.6763 31.2082C41.5629 32.3543 40.8795 33.2434 40.2422 33.8807L33.7661 40.3568C33.4974 40.6384 33.1667 40.8431 32.8952 40.9789C32.6094 41.1218 32.2622 41.2514 31.9127 41.3066L31.8899 41.3102L29.4177 41.6579C29.4172 41.658 29.4181 41.6579 29.4177 41.6579C28.6082 41.7732 27.7724 41.5604 27.1693 40.9573C26.5663 40.3543 26.3533 39.5199 26.4685 38.7105C26.4684 38.711 26.4686 38.7099 26.4685 38.7105L26.8199 36.214C26.8759 35.8588 27.0085 35.5136 27.1507 35.2325C27.2929 34.9514 27.4951 34.6355 27.756 34.3746C27.756 34.3746 27.756 34.3746 27.756 34.3746L34.246 27.8845C34.8833 27.2471 35.7705 26.5657 36.911 26.4485ZM37.1921 29.1841C36.9943 29.2045 36.6715 29.3481 36.1905 29.829L29.7029 36.3167C29.702 36.3178 29.6918 36.3294 29.6747 36.3543C29.6529 36.3859 29.6283 36.427 29.6045 36.474C29.5807 36.521 29.5622 36.5653 29.5495 36.6016C29.5415 36.6244 29.5378 36.6386 29.5364 36.6441L29.2177 38.909L31.4838 38.59C31.4896 38.5886 31.5064 38.5844 31.5335 38.5751C31.5727 38.5616 31.6187 38.5425 31.6654 38.5192C31.7125 38.4956 31.75 38.4729 31.7749 38.4556C31.7807 38.4516 31.7851 38.4484 31.7881 38.4461C31.7946 38.4394 31.8011 38.4327 31.8076 38.4262L38.2976 31.9362C38.7786 31.4552 38.9202 31.1342 38.9397 30.9374C38.952 30.8132 38.9455 30.4586 38.2976 29.8107C37.6624 29.1754 37.3145 29.1716 37.1921 29.1841Z" fill="#B7D44B"/>
<path fill-rule="evenodd" clip-rule="evenodd" d="M33.9155 28.467C34.6472 28.2638 35.4051 28.6922 35.6084 29.4238C36.0293 30.9392 37.2062 32.116 38.7216 32.537C39.4533 32.7402 39.8816 33.4981 39.6784 34.2298C39.4751 34.9615 38.7172 35.3899 37.9855 35.1866C35.5409 34.5076 33.6378 32.6046 32.9587 30.1599C32.7555 29.4282 33.1839 28.6703 33.9155 28.467Z" fill="#B7D44B"/>
</svg>
