<svg width="44" height="44" viewBox="0 0 44 44" fill="none" xmlns="http://www.w3.org/2000/svg">
<g opacity="0.4">
<path fill-rule="evenodd" clip-rule="evenodd" d="M24.1588 9.17001C25.6328 9.66062 26.6127 11.2474 26.3054 12.8023L25.9042 15.3634H29.2418C30.3253 15.3634 31.3376 15.8034 31.969 16.6553C32.6044 17.5126 32.7244 18.6139 32.3581 19.6577L30.0834 26.5547C29.8328 27.4704 29.2319 28.2034 28.553 28.6983C27.8627 29.2014 26.9889 29.535 26.0885 29.535H22.4585C22.0461 29.535 21.5637 29.4713 21.1106 29.3441C20.7154 29.2332 20.1761 29.0286 19.7472 28.6368L16.8486 26.3862L18.535 24.2141L21.5548 26.5586L21.5925 26.5963C21.5987 26.5999 21.6079 26.605 21.6205 26.6112C21.6713 26.6364 21.7495 26.6672 21.8539 26.6965C22.07 26.7571 22.3025 26.785 22.4585 26.785H26.0885C26.3247 26.785 26.6425 26.6878 26.9331 26.476C27.2229 26.2648 27.3827 26.0161 27.4338 25.8182L27.4451 25.7742L29.7561 18.7673L29.7615 18.752C29.8646 18.4626 29.7899 18.3336 29.7596 18.2927C29.7218 18.2418 29.5883 18.1134 29.2418 18.1134H25.4285C24.0503 18.1134 22.9034 16.9236 23.1132 15.4126L23.1165 15.389L23.5991 12.3087L23.6069 12.2722C23.6168 12.2258 23.6141 12.1228 23.5394 11.9976C23.4652 11.8732 23.3643 11.8029 23.2871 11.7782L23.251 11.7667L23.2156 11.7532C23.1917 11.7441 23.0991 11.7263 22.9554 11.7757C22.89 11.7981 22.8355 11.828 22.7977 11.8555C22.7787 11.8694 22.7683 11.8793 22.7642 11.8835L22.7566 11.8953L18.8514 17.7069L16.5688 16.1732L20.468 10.3701C20.8538 9.77985 21.4613 9.38108 22.0624 9.1747C22.6696 8.96619 23.4239 8.90124 24.1588 9.17001Z" fill="#B7D44B"/>
<path fill-rule="evenodd" clip-rule="evenodd" d="M14.2429 15.5743C14.2273 15.6385 14.2085 15.7598 14.2085 15.9683V25.3001C14.2085 25.5086 14.2273 25.6299 14.2429 25.6941C14.3288 25.7168 14.4836 25.7401 14.7402 25.7401H15.6935C15.95 25.7401 16.1048 25.7168 16.1907 25.6941C16.2063 25.6299 16.2252 25.5086 16.2252 25.3001V15.9683C16.2252 15.7598 16.2063 15.6385 16.1907 15.5743C16.1048 15.5517 15.95 15.5283 15.6935 15.5283H14.7402C14.4836 15.5283 14.3288 15.5517 14.2429 15.5743ZM14.2634 15.5132C14.2635 15.5134 14.2624 15.516 14.2597 15.5205C14.2619 15.5153 14.2632 15.5131 14.2634 15.5132ZM16.1703 15.5133C16.1704 15.5131 16.1718 15.5153 16.174 15.5205C16.1713 15.516 16.1702 15.5134 16.1703 15.5133ZM16.1703 25.7552C16.1702 25.755 16.1713 25.7524 16.174 25.7479C16.1718 25.7531 16.1704 25.7553 16.1703 25.7552ZM14.2634 25.7552C14.2632 25.7554 14.2619 25.7531 14.2597 25.7479C14.2624 25.7524 14.2635 25.755 14.2634 25.7552ZM12.3508 13.55C13.0488 12.9037 13.9667 12.7783 14.7402 12.7783H15.6935C16.4669 12.7783 17.3848 12.9037 18.0829 13.55C18.807 14.2205 18.9752 15.1473 18.9752 15.9683V25.3001C18.9752 26.1211 18.807 27.0479 18.0829 27.7184C17.3848 28.3647 16.4669 28.4901 15.6935 28.4901H14.7402C13.9667 28.4901 13.0488 28.3647 12.3508 27.7184C11.6266 27.0479 11.4585 26.1211 11.4585 25.3001V15.9683C11.4585 15.1474 11.6266 14.2205 12.3508 13.55Z" fill="#B7D44B"/>
</g>
<path fill-rule="evenodd" clip-rule="evenodd" d="M11 5.06006C8.70401 5.06006 6.875 6.89472 6.875 9.13V29.1317C6.875 31.367 8.70401 33.2017 11 33.2017H12.375C14.1765 33.2017 15.9397 33.9067 17.231 35.1964C17.232 35.1974 17.2329 35.1984 17.2339 35.1994L20.3626 38.2916C20.3626 38.2915 20.3627 38.2917 20.3626 38.2916C21.257 39.1742 22.724 39.1746 23.6185 38.2922M23.6185 38.2922L26.7477 35.1994C26.7488 35.1983 26.7499 35.1973 26.7509 35.1962C28.0405 33.9083 29.7845 33.2017 31.6067 33.2017H33C35.293 33.2017 37.125 31.3517 37.125 29.1317V9.13C37.125 6.89472 35.296 5.06006 33 5.06006H11M4.125 9.13C4.125 5.35195 7.20932 2.31006 11 2.31006H33C36.7907 2.31006 39.875 5.35195 39.875 9.13V29.1317C39.875 32.8885 36.7937 35.9517 33 35.9517H31.6067C30.497 35.9517 29.4557 36.3805 28.6923 37.1439L28.6865 37.1496L25.5516 40.2481C23.5861 42.1884 20.3962 42.1889 18.4307 40.2486L15.2951 37.1496L15.2894 37.1439C14.5276 36.3822 13.4688 35.9517 12.375 35.9517H11C7.20932 35.9517 4.125 32.9098 4.125 29.1317V9.13Z" fill="#B7D44B"/>
</svg>
