<svg width="44" height="44" viewBox="0 0 44 44" fill="none" xmlns="http://www.w3.org/2000/svg">
<path opacity="0.4" fill-rule="evenodd" clip-rule="evenodd" d="M9.35884 17.9437C10.7156 17.4108 12.1975 17.1235 13.7504 17.1235C19.9941 17.1235 25.2087 21.8696 25.2087 27.9217C25.2087 29.5613 24.815 31.1162 24.1147 32.505C24.1249 32.505 24.1351 32.505 24.1454 32.505C24.3926 32.505 24.6353 32.5717 24.8478 32.698L32.5394 37.2689C32.8416 37.4519 33.2599 37.2185 33.2121 36.8141C33.212 36.8137 33.2121 36.8145 33.2121 36.8141L32.4974 31.0235C32.4351 30.5189 32.6564 30.021 33.0728 29.7292C36.6661 27.2105 38.9587 23.2315 38.9587 18.7734C38.9587 11.2787 32.4233 5.04175 24.1454 5.04175C16.1749 5.04175 9.81993 10.824 9.35884 17.9437ZM6.58203 18.7734C6.58203 9.58473 14.53 2.29175 24.1454 2.29175C33.7608 2.29175 41.7087 9.58473 41.7087 18.7734C41.7087 23.9224 39.1983 28.4829 35.3251 31.4843L35.9422 36.4839C36.2598 39.1199 33.4203 41.0114 31.1205 39.6246C31.1186 39.6235 31.1167 39.6223 31.1147 39.6211L23.7616 35.2515C22.9906 35.2371 22.2315 35.1793 21.4846 35.0775C20.9867 35.0096 20.5655 34.6755 20.3861 34.2062C20.2066 33.7369 20.2975 33.207 20.623 32.8242C21.7823 31.4613 22.4587 29.7558 22.4587 27.9217C22.4587 23.5605 18.6533 19.8735 13.7504 19.8735C11.8882 19.8735 10.1877 20.402 8.7811 21.3187C8.38299 21.5782 7.87913 21.6137 7.44857 21.4126C7.01801 21.2115 6.72179 20.8024 6.66517 20.3306C6.6016 19.8008 6.58203 19.2844 6.58203 18.7734Z" fill="#B7D44B"/>
<path fill-rule="evenodd" clip-rule="evenodd" d="M13.7503 19.8735C11.8882 19.8735 10.1877 20.4021 8.78106 21.3188L8.77065 21.3256L8.77062 21.3255C6.48972 22.7828 5.04199 25.2059 5.04199 27.9218C5.04199 30.513 6.36531 32.8383 8.4843 34.3089C8.90532 34.6011 9.1289 35.1032 9.06438 35.6116L8.66652 38.7467L13.0482 36.1446C13.2607 36.0184 13.5032 35.9518 13.7503 35.9518C16.5769 35.9518 19.0624 34.7156 20.6097 32.8402L20.6229 32.8242L20.623 32.8243C21.7822 31.4614 22.4587 29.7559 22.4587 27.9218C22.4587 23.5605 18.6533 19.8735 13.7503 19.8735ZM7.28481 19.0115C9.14045 17.8036 11.3614 17.1235 13.7503 17.1235C19.9941 17.1235 25.2087 21.8697 25.2087 27.9218C25.2087 30.4474 24.2745 32.7723 22.7244 34.5982C20.7159 37.0278 17.6057 38.5872 14.138 38.6957L9.67456 41.3464C7.8555 42.4522 5.63756 40.9197 5.8764 38.8895L5.87787 38.877L5.87793 38.877L6.23584 36.0567C3.82863 34.1007 2.29199 31.1921 2.29199 27.9218C2.29199 24.1865 4.28862 20.928 7.28481 19.0115Z" fill="#B7D44B"/>
</svg>
