<svg width="44" height="44" viewBox="0 0 44 44" fill="none" xmlns="http://www.w3.org/2000/svg">
<path fill-rule="evenodd" clip-rule="evenodd" d="M5.6734 5.67364C8.11993 3.22712 11.7809 2.29175 16.4998 2.29175H27.4998C32.2188 2.29175 35.8798 3.22712 38.3263 5.67364C40.7728 8.12017 41.7082 11.7811 41.7082 16.5001V27.5001C41.7082 32.219 40.7728 35.88 38.3263 38.3265C35.8798 40.773 32.2188 41.7084 27.4998 41.7084H16.4998C11.7809 41.7084 8.11993 40.773 5.6734 38.3265C3.22687 35.88 2.2915 32.219 2.2915 27.5001V16.5001C2.2915 11.7811 3.22687 8.12017 5.6734 5.67364ZM7.61794 7.61819C5.93947 9.29666 5.0415 12.0524 5.0415 16.5001V27.5001C5.0415 31.9478 5.93947 34.7035 7.61794 36.382C9.29642 38.0605 12.0521 38.9584 16.4998 38.9584H27.4998C31.9476 38.9584 34.7033 38.0605 36.3817 36.382C38.0602 34.7035 38.9582 31.9478 38.9582 27.5001V16.5001C38.9582 12.0524 38.0602 9.29666 36.3817 7.61819C34.7033 5.93971 31.9476 5.04175 27.4998 5.04175H16.4998C12.0521 5.04175 9.29642 5.93971 7.61794 7.61819Z" fill="#B7D44B"/>
<g opacity="0.4">
<path fill-rule="evenodd" clip-rule="evenodd" d="M28.5454 25.3911C29.3048 25.3911 29.9204 26.0067 29.9204 26.7661V33.9161C29.9204 34.6755 29.3048 35.2911 28.5454 35.2911C27.786 35.2911 27.1704 34.6755 27.1704 33.9161V26.7661C27.1704 26.0067 27.786 25.3911 28.5454 25.3911Z" fill="#B7D44B"/>
<path fill-rule="evenodd" clip-rule="evenodd" d="M28.5454 8.7085C29.3048 8.7085 29.9204 9.3241 29.9204 10.0835V13.6585C29.9204 14.4179 29.3048 15.0335 28.5454 15.0335C27.786 15.0335 27.1704 14.4179 27.1704 13.6585V10.0835C27.1704 9.3241 27.786 8.7085 28.5454 8.7085Z" fill="#B7D44B"/>
<path fill-rule="evenodd" clip-rule="evenodd" d="M28.5445 15.0339C26.6713 15.0339 25.1528 16.5524 25.1528 18.4256C25.1528 20.2988 26.6713 21.8173 28.5445 21.8173C30.4177 21.8173 31.9362 20.2988 31.9362 18.4256C31.9362 16.5524 30.4177 15.0339 28.5445 15.0339ZM22.4028 18.4256C22.4028 15.0337 25.1525 12.2839 28.5445 12.2839C31.9364 12.2839 34.6862 15.0337 34.6862 18.4256C34.6862 21.8176 31.9364 24.5673 28.5445 24.5673C25.1525 24.5673 22.4028 21.8176 22.4028 18.4256Z" fill="#B7D44B"/>
<path fill-rule="evenodd" clip-rule="evenodd" d="M15.4546 28.9666C16.214 28.9666 16.8296 29.5822 16.8296 30.3416V33.9166C16.8296 34.6759 16.214 35.2916 15.4546 35.2916C14.6952 35.2916 14.0796 34.6759 14.0796 33.9166V30.3416C14.0796 29.5822 14.6952 28.9666 15.4546 28.9666Z" fill="#B7D44B"/>
<path fill-rule="evenodd" clip-rule="evenodd" d="M15.4546 8.7085C16.214 8.7085 16.8296 9.3241 16.8296 10.0835V17.2335C16.8296 17.9929 16.214 18.6085 15.4546 18.6085C14.6952 18.6085 14.0796 17.9929 14.0796 17.2335V10.0835C14.0796 9.3241 14.6952 8.7085 15.4546 8.7085Z" fill="#B7D44B"/>
<path fill-rule="evenodd" clip-rule="evenodd" d="M15.4551 22.1829C13.582 22.1829 12.0635 23.7014 12.0635 25.5745C12.0635 27.4477 13.582 28.9662 15.4551 28.9662C17.3283 28.9662 18.8468 27.4477 18.8468 25.5745C18.8468 23.7014 17.3283 22.1829 15.4551 22.1829ZM9.31348 25.5745C9.31348 22.1826 12.0632 19.4329 15.4551 19.4329C18.8471 19.4329 21.5968 22.1826 21.5968 25.5745C21.5968 28.9665 18.8471 31.7162 15.4551 31.7162C12.0632 31.7162 9.31348 28.9665 9.31348 25.5745Z" fill="#B7D44B"/>
</g>
</svg>
