<svg width="44" height="44" viewBox="0 0 44 44" fill="none" xmlns="http://www.w3.org/2000/svg">
<path opacity="0.4" fill-rule="evenodd" clip-rule="evenodd" d="M12.6133 28.105C13.3727 28.105 13.9883 28.7206 13.9883 29.48V33.275C13.9883 34.0344 13.3727 34.65 12.6133 34.65C11.8539 34.65 11.2383 34.0344 11.2383 33.275V29.48C11.2383 28.7206 11.8539 28.105 12.6133 28.105Z" fill="#B7D44B"/>
<path opacity="0.4" fill-rule="evenodd" clip-rule="evenodd" d="M22 24.3101C22.7594 24.3101 23.375 24.9257 23.375 25.6851V33.2751C23.375 34.0344 22.7594 34.6501 22 34.6501C21.2406 34.6501 20.625 34.0344 20.625 33.2751V25.6851C20.625 24.9257 21.2406 24.3101 22 24.3101Z" fill="#B7D44B"/>
<path opacity="0.4" fill-rule="evenodd" clip-rule="evenodd" d="M31.3867 20.4968C32.1461 20.4968 32.7617 21.1124 32.7617 21.8718V33.2752C32.7617 34.0345 32.1461 34.6502 31.3867 34.6502C30.6273 34.6502 30.0117 34.0345 30.0117 33.2752V21.8718C30.0117 21.1124 30.6273 20.4968 31.3867 20.4968Z" fill="#B7D44B"/>
<g opacity="0.4">
<path fill-rule="evenodd" clip-rule="evenodd" d="M32.2786 9.67768C32.8567 10.1701 32.9261 11.038 32.4336 11.616L31.5883 12.6084C26.7268 18.2897 20.2076 22.3113 12.9463 24.1219C12.2094 24.3056 11.4632 23.8572 11.2795 23.1204C11.0957 22.3836 11.5441 21.6373 12.2809 21.4536C18.9892 19.7809 25.0096 16.0663 29.498 10.8214C29.4978 10.8217 29.4983 10.8211 29.498 10.8214L30.3402 9.83275C30.8327 9.25467 31.7005 9.18524 32.2786 9.67768Z" fill="#B7D44B"/>
<path fill-rule="evenodd" clip-rule="evenodd" d="M24.6416 10.7244C24.6416 9.96497 25.2572 9.34937 26.0166 9.34937H31.3883C32.1477 9.34937 32.7633 9.96497 32.7633 10.7244V16.0777C32.7633 16.8371 32.1477 17.4527 31.3883 17.4527C30.6289 17.4527 30.0133 16.8371 30.0133 16.0777V12.0994H26.0166C25.2572 12.0994 24.6416 11.4838 24.6416 10.7244Z" fill="#B7D44B"/>
</g>
<path fill-rule="evenodd" clip-rule="evenodd" d="M5.67389 5.67364C8.12041 3.22712 11.7814 2.29175 16.5003 2.29175H27.5003C32.2193 2.29175 35.8802 3.22712 38.3268 5.67364C40.7733 8.12017 41.7087 11.7811 41.7087 16.5001V27.5001C41.7087 32.219 40.7733 35.88 38.3268 38.3265C35.8802 40.773 32.2193 41.7084 27.5003 41.7084H16.5003C11.7814 41.7084 8.12041 40.773 5.67389 38.3265C3.22736 35.88 2.29199 32.219 2.29199 27.5001V16.5001C2.29199 11.7811 3.22736 8.12017 5.67389 5.67364ZM7.61843 7.61819C5.93996 9.29666 5.04199 12.0524 5.04199 16.5001V27.5001C5.04199 31.9478 5.93996 34.7035 7.61843 36.382C9.2969 38.0605 12.0526 38.9584 16.5003 38.9584H27.5003C31.948 38.9584 34.7037 38.0605 36.3822 36.382C38.0607 34.7035 38.9587 31.9478 38.9587 27.5001V16.5001C38.9587 12.0524 38.0607 9.29666 36.3822 7.61819C34.7037 5.93971 31.948 5.04175 27.5003 5.04175H16.5003C12.0526 5.04175 9.2969 5.93971 7.61843 7.61819Z" fill="#B7D44B"/>
</svg>
