<svg width="44" height="44" viewBox="0 0 44 44" fill="none" xmlns="http://www.w3.org/2000/svg">
<path fill-rule="evenodd" clip-rule="evenodd" d="M5.6734 5.67364C8.11993 3.22712 11.7809 2.29175 16.4998 2.29175H27.4998C32.2188 2.29175 35.8798 3.22712 38.3263 5.67364C40.7728 8.12017 41.7082 11.7811 41.7082 16.5001V27.5001C41.7082 32.219 40.7728 35.88 38.3263 38.3265C35.8798 40.773 32.2188 41.7084 27.4998 41.7084H16.4998C11.7809 41.7084 8.11993 40.773 5.6734 38.3265C3.22687 35.88 2.2915 32.219 2.2915 27.5001V16.5001C2.2915 11.7811 3.22687 8.12017 5.6734 5.67364ZM7.61794 7.61819C5.93947 9.29666 5.0415 12.0524 5.0415 16.5001V27.5001C5.0415 31.9478 5.93947 34.7035 7.61794 36.382C9.29642 38.0605 12.0521 38.9584 16.4998 38.9584H27.4998C31.9476 38.9584 34.7033 38.0605 36.3817 36.382C38.0602 34.7035 38.9582 31.9478 38.9582 27.5001V16.5001C38.9582 12.0524 38.0602 9.29666 36.3817 7.61819C34.7033 5.93971 31.9476 5.04175 27.4998 5.04175H16.4998C12.0521 5.04175 9.29642 5.93971 7.61794 7.61819Z" fill="#B7D44B"/>
<path fill-rule="evenodd" clip-rule="evenodd" d="M3.24463 13.0352C3.24463 12.2758 3.86024 11.6602 4.61963 11.6602H39.3796C40.139 11.6602 40.7546 12.2758 40.7546 13.0352C40.7546 13.7945 40.139 14.4102 39.3796 14.4102H4.61963C3.86024 14.4102 3.24463 13.7945 3.24463 13.0352Z" fill="#B7D44B"/>
<path fill-rule="evenodd" clip-rule="evenodd" d="M15.6196 2.49341C16.379 2.49341 16.9946 3.10902 16.9946 3.86841V12.7784C16.9946 13.5378 16.379 14.1534 15.6196 14.1534C14.8602 14.1534 14.2446 13.5378 14.2446 12.7784V3.86841C14.2446 3.10902 14.8602 2.49341 15.6196 2.49341Z" fill="#B7D44B"/>
<path fill-rule="evenodd" clip-rule="evenodd" d="M28.3799 2.49341C29.1393 2.49341 29.7549 3.10902 29.7549 3.86841V11.9534C29.7549 12.7128 29.1393 13.3284 28.3799 13.3284C27.6205 13.3284 27.0049 12.7128 27.0049 11.9534V3.86841C27.0049 3.10902 27.6205 2.49341 28.3799 2.49341Z" fill="#B7D44B"/>
<path opacity="0.4" fill-rule="evenodd" clip-rule="evenodd" d="M19.8673 22.6105C19.6347 22.7451 19.25 23.1738 19.25 24.2917V28.6917C19.25 29.8096 19.6347 30.2383 19.8673 30.3729C20.099 30.5069 20.6592 30.6262 21.6227 30.0684L25.4361 27.8684C25.4358 27.8686 25.4364 27.8683 25.4361 27.8684C26.3987 27.3109 26.5787 26.7634 26.5787 26.4917C26.5787 26.22 26.3995 25.6731 25.4369 25.1155C25.4366 25.1153 25.4372 25.1157 25.4369 25.1155L21.6227 22.915C20.6592 22.3572 20.099 22.4765 19.8673 22.6105ZM22.9997 20.5346C21.525 19.6811 19.8673 19.4337 18.4906 20.23C17.1145 21.0258 16.5 22.5863 16.5 24.2917V28.6917C16.5 30.3971 17.1145 31.9576 18.4906 32.7534C19.8674 33.5497 21.5251 33.3023 22.9997 32.4489C22.9994 32.449 23 32.4487 22.9997 32.4489L26.8139 30.2484C28.2889 29.3944 29.3287 28.0808 29.3287 26.4917C29.3287 24.9027 28.2889 23.589 26.8139 22.7351L24.9055 21.634L22.9997 20.5346C23 20.5347 22.9993 20.5344 22.9997 20.5346Z" fill="#B7D44B"/>
</svg>
