<svg width="48" height="117" viewBox="0 0 48 117" fill="none" xmlns="http://www.w3.org/2000/svg">
<path d="M37.89 0.0791993C37.3815 -0.13621 36.7946 0.101422 36.5792 0.609967L33.0689 8.89717C32.8535 9.40572 33.0911 9.9926 33.5997 10.208C34.1082 10.4234 34.6951 10.1858 34.9105 9.67724L38.0308 2.31083L45.3972 5.4311C45.9057 5.64651 46.4926 5.40888 46.708 4.90033C46.9234 4.39179 46.6858 3.80491 46.1772 3.5895L37.89 0.0791993ZM0.926419 116.405C12.7641 110.824 28.7947 98.3529 38.5429 79.0253C48.3123 59.6554 51.7298 33.4787 38.4269 0.624691L36.5731 1.37531C49.6702 33.7213 46.2543 59.2946 36.7571 78.1247C27.2386 96.9971 11.5693 109.176 0.0735808 114.595L0.926419 116.405Z" fill="#B7D44B"/>
</svg>
