<svg width="20" height="114" viewBox="0 0 20 114" fill="none" xmlns="http://www.w3.org/2000/svg">
<path opacity="0.3" d="M11.4229 0.614345C11.2099 0.104784 10.6241 -0.135634 10.1146 0.0773568L1.81079 3.54825C1.30122 3.76124 1.06081 4.34698 1.2738 4.85655C1.48679 5.36611 2.07253 5.60653 2.5821 5.39353L9.96324 2.3083L13.0485 9.68944C13.2615 10.199 13.8472 10.4394 14.3568 10.2264C14.8663 10.0134 15.1068 9.4277 14.8938 8.91813L11.4229 0.614345ZM17.9848 113.675C20.3842 100.162 19.4447 90.4729 17.0841 82.4899C14.7415 74.5679 10.9779 68.3091 7.90222 61.8809C4.812 55.4223 2.31133 48.6198 2.25017 39.3137C2.18885 29.9835 4.58007 18.0572 11.4253 1.37971L9.57512 0.620292C2.67037 17.4428 0.186559 29.6415 0.250212 39.3269C0.314024 49.0364 2.93832 56.1402 6.0981 62.7441C9.2724 69.3784 12.8838 75.3383 15.1662 83.057C17.4306 90.7146 18.3661 100.088 16.0156 113.325L17.9848 113.675Z" fill="#131313"/>
</svg>
