<svg width="44" height="44" viewBox="0 0 44 44" fill="none" xmlns="http://www.w3.org/2000/svg">
<path fill-rule="evenodd" clip-rule="evenodd" d="M22 5.0415C12.6342 5.0415 5.04166 12.634 5.04166 21.9998C5.04166 31.3657 12.6342 38.9582 22 38.9582C31.3658 38.9582 38.9583 31.3657 38.9583 21.9998C38.9583 12.634 31.3658 5.0415 22 5.0415ZM2.29166 21.9998C2.29166 11.1152 11.1154 2.2915 22 2.2915C32.8846 2.2915 41.7083 11.1152 41.7083 21.9998C41.7083 32.8845 32.8846 41.7082 22 41.7082C11.1154 41.7082 2.29166 32.8845 2.29166 21.9998Z" fill="#B7D44B"/>
<path opacity="0.4" fill-rule="evenodd" clip-rule="evenodd" d="M28.4723 15.5277C29.0092 16.0647 29.0092 16.9353 28.4723 17.4723L17.4723 28.4723C16.9353 29.0092 16.0647 29.0092 15.5277 28.4723C14.9908 27.9353 14.9908 27.0647 15.5277 26.5277L26.5277 15.5277C27.0647 14.9908 27.9353 14.9908 28.4723 15.5277Z" fill="#B7D44B"/>
<path opacity="0.4" fill-rule="evenodd" clip-rule="evenodd" d="M24.7399 26.5833C24.7399 25.5708 25.5607 24.75 26.5732 24.75H26.5897C27.6022 24.75 28.423 25.5708 28.423 26.5833C28.423 27.5959 27.6022 28.4167 26.5897 28.4167H26.5732C25.5607 28.4167 24.7399 27.5959 24.7399 26.5833Z" fill="#B7D44B"/>
<path opacity="0.4" fill-rule="evenodd" clip-rule="evenodd" d="M15.5732 17.4163C15.5732 16.4038 16.3941 15.583 17.4066 15.583H17.423C18.4356 15.583 19.2564 16.4038 19.2564 17.4163C19.2564 18.4289 18.4356 19.2497 17.423 19.2497H17.4066C16.3941 19.2497 15.5732 18.4289 15.5732 17.4163Z" fill="#B7D44B"/>
</svg>
