<svg width="44" height="44" viewBox="0 0 44 44" fill="none" xmlns="http://www.w3.org/2000/svg">
<path fill-rule="evenodd" clip-rule="evenodd" d="M22 5.0415C12.6394 5.0415 5.04169 12.6392 5.04169 21.9998C5.04169 31.3604 12.6394 38.9582 22 38.9582C31.3606 38.9582 38.9584 31.3604 38.9584 21.9998C38.9584 12.6392 31.3606 5.0415 22 5.0415ZM2.29169 21.9998C2.29169 11.1204 11.1206 2.2915 22 2.2915C32.8794 2.2915 41.7084 11.1204 41.7084 21.9998C41.7084 32.8792 32.8794 41.7082 22 41.7082C11.1206 41.7082 2.29169 32.8792 2.29169 21.9998Z" fill="#B7D44B"/>
<path opacity="0.4" fill-rule="evenodd" clip-rule="evenodd" d="M21.3217 12.3931C22.0811 12.3931 22.6967 13.0087 22.6967 13.7681V21.2847C22.6967 21.5662 22.8042 21.9743 23.0432 22.3934C23.2823 22.8126 23.5786 23.1125 23.8194 23.2552L23.823 23.2573L23.823 23.2573L29.5063 26.649C30.1584 27.0382 30.3716 27.8823 29.9824 28.5344C29.5933 29.1865 28.7492 29.3996 28.0971 29.0105L22.4174 25.621C22.4168 25.6206 22.4161 25.6202 22.4155 25.6198C21.6672 25.1758 21.0658 24.4771 20.6544 23.7557C20.2426 23.0335 19.9467 22.1582 19.9467 21.2847V13.7681C19.9467 13.0087 20.5623 12.3931 21.3217 12.3931Z" fill="#B7D44B"/>
</svg>
