<svg width="44" height="44" viewBox="0 0 44 44" fill="none" xmlns="http://www.w3.org/2000/svg">
<path fill-rule="evenodd" clip-rule="evenodd" d="M22 5.0415C15.6644 5.0415 10.5417 10.1642 10.5417 16.4998C10.5417 18.8788 11.2451 21.0516 12.4536 22.8656C14.2262 25.4898 17.0252 27.3342 20.2733 27.8075C20.2869 27.8095 20.3004 27.8117 20.3139 27.8141C20.8551 27.9096 21.4167 27.9582 22 27.9582C22.5833 27.9582 23.1449 27.9096 23.686 27.8141C23.6949 27.8125 23.7038 27.8111 23.7127 27.8097C23.7174 27.8089 23.722 27.8082 23.7267 27.8075C26.9748 27.3342 29.7737 25.4898 31.5464 22.8656C32.7548 21.0516 33.4583 18.8788 33.4583 16.4998C33.4583 10.1642 28.3356 5.0415 22 5.0415ZM7.79166 16.4998C7.79166 8.64545 14.1456 2.2915 22 2.2915C29.8544 2.2915 36.2083 8.64545 36.2083 16.4998C36.2083 19.4361 35.336 22.1389 33.8324 24.3942L33.828 24.4008C31.6442 27.6361 28.182 29.9313 24.1435 30.5258C23.4445 30.6479 22.7296 30.7082 22 30.7082C21.2704 30.7082 20.5555 30.6479 19.8564 30.5258C15.8179 29.9313 12.3558 27.6361 10.172 24.4008L10.1676 24.3943L10.1676 24.3942C8.664 22.1389 7.79166 19.4361 7.79166 16.4998Z" fill="#B7D44B"/>
<path opacity="0.4" fill-rule="evenodd" clip-rule="evenodd" d="M11.4432 22.2812C11.8519 22.3205 12.2216 22.5403 12.4513 22.8806C14.2239 25.5066 17.0238 27.3524 20.2733 27.826C20.2869 27.828 20.3004 27.8301 20.314 27.8325C20.7897 27.9165 21.2812 27.9642 21.7893 27.9745C21.8584 27.9638 21.9286 27.9583 21.9994 27.9583C22.0706 27.9582 22.1412 27.9637 22.2106 27.9745C22.7188 27.9642 23.2103 27.9165 23.6861 27.8325C23.6996 27.8301 23.7131 27.828 23.7267 27.826C26.9762 27.3524 29.7761 25.5066 31.5487 22.8806C31.7784 22.5403 32.1481 22.3205 32.5568 22.2812C32.9655 22.2419 33.3703 22.3873 33.6606 22.6776L40.8069 29.8239C42.5992 31.5913 41.6934 34.6269 39.2752 35.1996L36.2583 35.9126C36.2573 35.9129 36.2563 35.9131 36.2552 35.9134C36.0531 35.9636 35.9478 36.0979 35.9206 36.2238L35.9143 36.2517L35.2728 38.946C35.2727 38.9462 35.2729 38.9457 35.2728 38.946C34.6622 41.5142 31.3976 42.2762 29.7012 40.2751L22.0009 31.4286L14.2992 40.2928C12.603 42.2946 9.33799 41.5334 8.72739 38.965L8.08729 36.2765C8.08711 36.2758 8.08693 36.2751 8.08675 36.2743C8.03988 36.0853 7.89557 35.9654 7.76839 35.9372L7.75037 35.9332L4.7254 35.2181C2.28964 34.6412 1.41627 31.6008 3.1894 29.8276L10.3394 22.6776C10.6297 22.3873 11.0346 22.2419 11.4432 22.2812ZM24.7822 30.4352L31.7973 38.4946C32.0465 38.7908 32.5116 38.6709 32.5972 38.3105L33.2362 35.6268C33.507 34.4049 34.4608 33.5196 35.6084 33.2405L35.6171 33.2384L38.6414 32.5236C39.0076 32.4369 39.0924 31.9945 38.875 31.781L38.866 31.7722L32.8269 25.7331C30.788 28.1126 27.9842 29.8126 24.7822 30.4352ZM19.2206 30.4358C16.0174 29.8135 13.2125 28.1133 11.1731 25.7331L5.13394 31.7722C4.8904 32.0157 5.00765 32.4588 5.35856 32.542L8.37528 33.255C9.56257 33.5231 10.4765 34.4636 10.7594 35.6266L10.761 35.6331L11.4026 38.3281C11.4882 38.6884 11.9536 38.8092 12.2028 38.5131L12.2169 38.4963L19.2206 30.4358Z" fill="#B7D44B"/>
<path opacity="0.4" fill-rule="evenodd" clip-rule="evenodd" d="M22.0275 11.9659L21.1398 13.7412L19.91 13.1263M22.0275 11.9659L22.9152 13.7412L22.0275 11.9659ZM22.0069 8.70801C23.1552 8.70801 23.9046 9.57097 24.2932 10.3481L25.3318 12.4253L27.211 12.7414C28.0801 12.8831 29.0807 13.3571 29.4219 14.4275C29.7625 15.4959 29.2237 16.4639 28.6006 17.0869L27.155 18.5325L27.5737 20.329C27.5736 20.3285 27.5738 20.3294 27.5737 20.329C27.7747 21.1874 27.8234 22.4904 26.7941 23.2457C25.7632 24.0022 24.5355 23.5631 23.7734 23.1089L22.0367 22.0842L20.2912 23.114C19.5328 23.5564 18.3106 23.9882 17.2845 23.2427C16.2484 22.4898 16.2987 21.1869 16.4994 20.3301C16.4993 20.3305 16.4995 20.3298 16.4994 20.3301L16.9183 18.5325L15.4727 17.087C14.8546 16.4688 14.3084 15.5037 14.6522 14.432C14.994 13.3663 15.9929 12.8948 16.8477 12.7439L16.8586 12.742L18.7215 12.4287L19.7514 10.3689C20.1161 9.58022 20.8483 8.70801 22.0069 8.70801ZM22.9152 13.7412C23.1091 14.1291 23.4079 14.4323 23.6921 14.6423L22.9152 13.7412ZM23.6921 14.6423C23.976 14.8521 24.359 15.0531 24.8021 15.1248L23.6921 14.6423ZM24.8021 15.1248L26.4041 15.3943L25.1344 16.664C24.8033 16.9951 24.6029 17.4077 24.4975 17.7785C24.393 18.1465 24.344 18.6077 24.4578 19.0749L24.794 20.5181L23.3473 19.6645C22.9166 19.4049 22.4364 19.3184 22.0367 19.3184C21.637 19.3184 21.1567 19.4049 20.7261 19.6645L19.2793 20.5181L19.6175 19.0667L19.6238 19.0379C19.7156 18.6019 19.6704 18.1612 19.5738 17.8031C19.4784 17.4493 19.2891 17.0142 18.9389 16.664L17.6692 15.3943L19.2744 15.1243C19.274 15.1244 19.2747 15.1242 19.2744 15.1243" fill="#B7D44B"/>
</svg>
