<svg width="44" height="44" viewBox="0 0 44 44" fill="none" xmlns="http://www.w3.org/2000/svg">
<path fill-rule="evenodd" clip-rule="evenodd" d="M33.0308 5.04176C31.749 5.04494 30.7083 6.08694 30.7083 7.35175V18.7917H35.6033C36.7573 18.7917 37.5655 18.4325 38.0823 17.9157C38.5991 17.399 38.9583 16.5907 38.9583 15.4367V11.0001C38.9583 9.36782 38.2924 7.87701 37.2128 6.78071C36.1457 5.71535 34.6595 5.05846 33.0308 5.04176ZM27.9583 7.35175C27.9583 4.54849 30.2512 2.29175 33.0367 2.29175H33.0493L33.0493 2.29181C35.4129 2.31349 37.5894 3.26825 39.1606 4.83947L39.1673 4.84618L39.1673 4.8462C40.7257 6.42624 41.7083 8.60071 41.7083 11.0001V15.4367C41.7083 17.1794 41.1509 18.7362 40.0269 19.8603C38.9028 20.9843 37.346 21.5417 35.6033 21.5417H29.3333C28.5739 21.5417 27.9583 20.9261 27.9583 20.1667V7.35175Z" fill="#B7D44B"/>
<path fill-rule="evenodd" clip-rule="evenodd" d="M4.23016 4.91536C5.7056 3.2068 7.96851 2.29175 11 2.29175H33C33.7594 2.29175 34.375 2.90736 34.375 3.66675C34.375 4.42614 33.7594 5.04175 33 5.04175C31.7427 5.04175 30.7083 6.07614 30.7083 7.33342V38.5001C30.7083 41.1433 27.6897 42.6368 25.5804 41.0708L25.576 41.0675L22.4266 38.71C22.2685 38.5884 22.0158 38.5955 21.8539 38.7574L18.7739 41.8374C17.522 43.0893 15.478 43.0893 14.2261 41.8374L14.2231 41.8344L11.1827 38.7757C11.1824 38.7754 11.1831 38.776 11.1827 38.7757C11.0008 38.5947 10.739 38.5858 10.56 38.7201L7.43031 41.0628C7.42905 41.0637 7.4278 41.0647 7.42654 41.0656C5.30322 42.6697 2.29167 41.1463 2.29167 38.5001V11.0001C2.29167 8.79483 2.78728 6.58622 4.23016 4.91536ZM28.5115 5.04175H11C8.53149 5.04175 7.12773 5.76753 6.31151 6.71272C5.46272 7.69561 5.04167 9.15367 5.04167 11.0001V38.5001C5.04167 38.8956 5.47323 39.0954 5.7697 38.8708L5.77603 38.866L8.91 36.5201C10.1973 35.5546 11.9892 35.6931 13.1273 36.8311L13.1302 36.8341L16.1706 39.8928C16.1703 39.8925 16.1709 39.8931 16.1706 39.8928C16.3488 40.0699 16.6517 40.0705 16.8294 39.8928L19.9094 36.8128C21.0285 35.6937 22.8237 35.5524 24.0951 36.5239L27.2196 38.8628C27.2201 38.8631 27.2206 38.8635 27.2211 38.8639C27.5317 39.0927 27.9583 38.8629 27.9583 38.5001V7.33342C27.9583 6.50922 28.158 5.73002 28.5115 5.04175Z" fill="#B7D44B"/>
<path opacity="0.4" fill-rule="evenodd" clip-rule="evenodd" d="M15.125 23.8518C15.125 23.0924 15.7406 22.4768 16.5 22.4768H22C22.7594 22.4768 23.375 23.0924 23.375 23.8518C23.375 24.6112 22.7594 25.2268 22 25.2268H16.5C15.7406 25.2268 15.125 24.6112 15.125 23.8518Z" fill="#B7D44B"/>
<path opacity="0.4" fill-rule="evenodd" clip-rule="evenodd" d="M15.125 16.5183C15.125 15.7589 15.7406 15.1433 16.5 15.1433H22C22.7594 15.1433 23.375 15.7589 23.375 16.5183C23.375 17.2777 22.7594 17.8933 22 17.8933H16.5C15.7406 17.8933 15.125 17.2777 15.125 16.5183Z" fill="#B7D44B"/>
<path opacity="0.4" fill-rule="evenodd" clip-rule="evenodd" d="M9.15861 23.8333C9.15861 22.8208 9.97942 22 10.9919 22H11.0084C12.0209 22 12.8417 22.8208 12.8417 23.8333C12.8417 24.8459 12.0209 25.6667 11.0084 25.6667H10.9919C9.97942 25.6667 9.15861 24.8459 9.15861 23.8333Z" fill="#B7D44B"/>
<path opacity="0.4" fill-rule="evenodd" clip-rule="evenodd" d="M9.15839 16.5001C9.15839 15.4876 9.9792 14.6667 10.9917 14.6667H11.0082C12.0207 14.6667 12.8415 15.4876 12.8415 16.5001C12.8415 17.5126 12.0207 18.3334 11.0082 18.3334H10.9917C9.9792 18.3334 9.15839 17.5126 9.15839 16.5001Z" fill="#B7D44B"/>
</svg>
