<svg width="44" height="44" viewBox="0 0 44 44" fill="none" xmlns="http://www.w3.org/2000/svg">
<path fill-rule="evenodd" clip-rule="evenodd" d="M7.14048 4.57664C8.87506 2.72253 11.6022 2.29163 15.07 2.29163H28.93C32.3977 2.29163 35.1249 2.72253 36.8595 4.57664C38.5636 6.39813 38.9583 9.23345 38.9583 12.9066V20.7166C38.9583 21.476 38.3427 22.0916 37.5833 22.0916C36.8239 22.0916 36.2083 21.476 36.2083 20.7166V12.9066C36.2083 9.1915 35.7414 7.40681 34.8513 6.45538C33.9917 5.53656 32.3922 5.04163 28.93 5.04163H15.07C11.6077 5.04163 10.0083 5.53656 9.14867 6.45538C8.25857 7.40681 7.79166 9.1915 7.79166 12.9066V33.5499C7.79166 34.6583 7.94581 35.4538 8.15878 35.9761C8.36992 36.4938 8.59493 36.6491 8.70454 36.6963C8.80411 36.7392 9.03735 36.7924 9.49907 36.5931C9.97427 36.3879 10.5996 35.9475 11.3323 35.161C11.3428 35.1497 11.3536 35.1385 11.3646 35.1275L11.3703 35.1218C13.4554 32.9262 16.7416 33.1059 18.5547 35.5318L20.406 38.0062C20.8609 38.6143 20.7367 39.476 20.1287 39.9309C19.5206 40.3858 18.6589 40.2617 18.204 39.6536L16.3523 37.1786L16.3519 37.1781C15.5658 36.1262 14.2796 36.0445 13.3572 37.023L13.3304 37.0507L13.3281 37.053C12.4432 37.9996 11.5227 38.7147 10.5891 39.1178C9.63631 39.5292 8.59194 39.642 7.61671 39.222C6.65152 38.8062 6.00454 37.9761 5.6124 37.0145C5.22209 36.0575 5.04166 34.8799 5.04166 33.5499V12.9066C5.04166 9.23345 5.43641 6.39813 7.14048 4.57664Z" fill="#B7D44B"/>
<path opacity="0.4" fill-rule="evenodd" clip-rule="evenodd" d="M13.2917 12.8333C13.2917 12.0739 13.9073 11.4583 14.6667 11.4583H29.3333C30.0927 11.4583 30.7083 12.0739 30.7083 12.8333C30.7083 13.5926 30.0927 14.2083 29.3333 14.2083H14.6667C13.9073 14.2083 13.2917 13.5926 13.2917 12.8333Z" fill="#B7D44B"/>
<path opacity="0.4" fill-rule="evenodd" clip-rule="evenodd" d="M15.125 20.1666C15.125 19.4072 15.7406 18.7916 16.5 18.7916H27.5C28.2594 18.7916 28.875 19.4072 28.875 20.1666C28.875 20.926 28.2594 21.5416 27.5 21.5416H16.5C15.7406 21.5416 15.125 20.926 15.125 20.1666Z" fill="#B7D44B"/>
<path fill-rule="evenodd" clip-rule="evenodd" d="M35.0778 24.6701C36.2937 24.5452 37.4125 25.0913 38.409 26.0877C39.411 27.0898 39.9638 28.211 39.8431 29.4298C39.7297 30.5759 39.0463 31.465 38.409 32.1023L31.9329 38.5783C31.6642 38.8599 31.3336 39.0646 31.0621 39.2004C30.7763 39.3433 30.429 39.473 30.0795 39.5282L30.0567 39.5318L27.5845 39.8795C27.5839 39.8796 27.585 39.8794 27.5845 39.8795C26.775 39.9947 25.939 39.7819 25.3361 39.1789C24.733 38.5759 24.52 37.7415 24.6352 36.9321C24.6352 36.9326 24.6353 36.9315 24.6352 36.9321L24.9866 34.4355C25.0427 34.0803 25.1752 33.7351 25.3175 33.454C25.4597 33.1729 25.6618 32.8569 25.9227 32.596C25.9227 32.596 25.9227 32.596 25.9227 32.596L32.4127 26.106C33.0501 25.4686 33.9373 24.7872 35.0778 24.6701ZM35.3588 27.4057C35.161 27.426 34.8382 27.5696 34.3573 28.0506L27.8697 34.5381C27.8688 34.5393 27.8586 34.5509 27.8415 34.5758C27.8197 34.6074 27.7951 34.6485 27.7713 34.6955C27.7475 34.7425 27.7289 34.7868 27.7162 34.8232C27.7083 34.8459 27.7046 34.8601 27.7032 34.8656L27.3844 37.1306L29.6505 36.8116C29.6564 36.8102 29.6731 36.806 29.7002 36.7967C29.7394 36.7832 29.7854 36.7641 29.8321 36.7408C29.8792 36.7172 29.9167 36.6945 29.9416 36.6772C29.9475 36.6731 29.9518 36.6699 29.9549 36.6676C29.9613 36.6609 29.9678 36.6543 29.9744 36.6477L36.4644 30.1577C36.9454 29.6767 37.087 29.3558 37.1065 29.1589C37.1188 29.0348 37.1123 28.6802 36.4644 28.0323C35.8292 27.397 35.4813 27.3931 35.3588 27.4057Z" fill="#B7D44B"/>
<path fill-rule="evenodd" clip-rule="evenodd" d="M32.082 26.6885C32.8137 26.4852 33.5716 26.9136 33.7748 27.6453C34.1958 29.1606 35.3727 30.3375 36.888 30.7585C37.6197 30.9617 38.0481 31.7196 37.8448 32.4513C37.6416 33.183 36.8837 33.6114 36.152 33.4081C33.7073 32.7291 31.8042 30.826 31.1252 28.3813C30.9219 27.6496 31.3503 26.8917 32.082 26.6885Z" fill="#B7D44B"/>
</svg>
