<svg width="44" height="44" viewBox="0 0 44 44" fill="none" xmlns="http://www.w3.org/2000/svg">
<path opacity="0.4" fill-rule="evenodd" clip-rule="evenodd" d="M19.3411 6.51022L14.4081 11.4584H30.8399C30.5969 10.8432 30.2204 10.2669 29.7071 9.76158L29.6938 9.74851L26.4903 6.50832C24.5153 4.55227 21.3154 4.5529 19.3411 6.51022ZM11.4394 10.5412L17.4013 4.56091C20.4491 1.53535 25.3842 1.53536 28.432 4.56093L28.4411 4.56997L31.6432 7.80863C33.0618 9.20845 33.8255 11 33.9151 12.8588C33.9351 13.2741 33.7661 13.6762 33.4554 13.9525C33.1448 14.2288 32.7257 14.3497 32.3156 14.2813C31.9858 14.2264 31.615 14.2084 31.1667 14.2084H12.8333C12.3855 14.2084 11.9606 14.2404 11.5574 14.3024C11.0493 14.3806 10.54 14.1688 10.2372 13.7533C9.93439 13.3379 9.88859 12.7883 10.1185 12.3285C10.456 11.6535 10.9216 11.0591 11.4394 10.5412C11.4396 10.5409 11.4392 10.5414 11.4394 10.5412Z" fill="#B7D44B"/>
<path fill-rule="evenodd" clip-rule="evenodd" d="M9.16668 28.875C5.8744 28.875 3.20834 31.5411 3.20834 34.8333C3.20834 35.9505 3.52096 37.0027 4.06704 37.8883L4.07857 37.907L4.07842 37.9071C5.10474 39.6325 6.99257 40.7917 9.16668 40.7917C11.3408 40.7917 13.2286 39.6325 14.2549 37.9071L14.2662 37.8882L14.2663 37.8883C14.8124 37.0027 15.125 35.9505 15.125 34.8333C15.125 31.5411 12.459 28.875 9.16668 28.875ZM0.458344 34.8333C0.458344 30.0223 4.35562 26.125 9.16668 26.125C13.9777 26.125 17.875 30.0223 17.875 34.8333C17.875 36.4623 17.4198 38.0099 16.6128 39.3224C15.1078 41.8451 12.3419 43.5417 9.16668 43.5417C5.9914 43.5417 3.22551 41.8451 1.72056 39.3224C0.913563 38.0099 0.458344 36.4623 0.458344 34.8333Z" fill="#B7D44B"/>
<path fill-rule="evenodd" clip-rule="evenodd" d="M5.06 34.7966C5.06 34.0372 5.67561 33.4216 6.435 33.4216H11.8983C12.6577 33.4216 13.2733 34.0372 13.2733 34.7966C13.2733 35.556 12.6577 36.1716 11.8983 36.1716H6.435C5.67561 36.1716 5.06 35.556 5.06 34.7966Z" fill="#B7D44B"/>
<path fill-rule="evenodd" clip-rule="evenodd" d="M9.16666 30.7451C9.92605 30.7451 10.5417 31.3607 10.5417 32.1201V37.6018C10.5417 38.3612 9.92605 38.9768 9.16666 38.9768C8.40726 38.9768 7.79166 38.3612 7.79166 37.6018V32.1201C7.79166 31.3607 8.40726 30.7451 9.16666 30.7451Z" fill="#B7D44B"/>
<path fill-rule="evenodd" clip-rule="evenodd" d="M12.8334 14.2085C12.3856 14.2085 11.9606 14.2405 11.5574 14.3025L11.5196 14.3078C9.48947 14.5625 7.89359 15.4317 6.80085 16.7138C5.7053 17.9991 5.04169 19.7871 5.04169 22.0002V27.1665C6.26599 26.5042 7.66984 26.1252 9.16669 26.1252C13.9777 26.1252 17.875 30.0224 17.875 34.8335C17.875 36.3142 17.4989 37.7277 16.8243 38.9585H31.1667C33.6042 38.9585 35.5287 38.152 36.8402 36.8404C38.1518 35.5288 38.9584 33.6044 38.9584 31.1668V22.0002C38.9584 19.7721 38.2831 17.973 37.1703 16.6835C36.06 15.3969 34.4394 14.5301 32.3829 14.2909C32.3604 14.2883 32.338 14.2852 32.3156 14.2814C31.9858 14.2265 31.615 14.2085 31.1667 14.2085H12.8334ZM11.1583 11.5816C11.7024 11.4989 12.2612 11.4585 12.8334 11.4585H31.1667C31.6611 11.4585 32.1947 11.4764 32.7333 11.5632C35.3925 11.8797 37.6557 13.0368 39.2522 14.8868C40.8528 16.7415 41.7084 19.2049 41.7084 22.0002V31.1668C41.7084 34.2293 40.6815 36.8882 38.7848 38.7849C36.8881 40.6817 34.2292 41.7085 31.1667 41.7085H13.9884C13.4102 41.7085 12.8939 41.3469 12.6962 40.8036C12.4986 40.2604 12.6618 39.6515 13.1048 39.28C13.5502 38.9064 13.9428 38.4422 14.249 37.9173L14.2663 37.8884C14.8124 37.0029 15.125 35.9507 15.125 34.8335C15.125 31.5412 12.459 28.8752 9.16669 28.8752C7.38192 28.8752 5.78993 29.6614 4.69916 30.9016C4.32127 31.3312 3.7168 31.4819 3.18142 31.28C2.64604 31.0781 2.29169 30.5657 2.29169 29.9935V22.0002C2.29169 19.2266 3.13141 16.7795 4.70794 14.9299C6.28353 13.0813 8.52157 11.9166 11.1583 11.5816Z" fill="#B7D44B"/>
<path opacity="0.4" fill-rule="evenodd" clip-rule="evenodd" d="M29.7917 26.5834C29.7917 23.8074 32.0573 21.5417 34.8333 21.5417H40.3333C41.0927 21.5417 41.7083 22.1574 41.7083 22.9167C41.7083 23.6761 41.0927 24.2917 40.3333 24.2917H34.8333C33.5761 24.2917 32.5417 25.3261 32.5417 26.5834C32.5417 27.8407 33.5761 28.8751 34.8333 28.8751H40.3333C41.0927 28.8751 41.7083 29.4907 41.7083 30.2501C41.7083 31.0095 41.0927 31.6251 40.3333 31.6251H34.8333C32.0573 31.6251 29.7917 29.3595 29.7917 26.5834Z" fill="#B7D44B"/>
</svg>
